<svg width="37" height="22" viewBox="0 0 37 22" fill="none" xmlns="http://www.w3.org/2000/svg">
<path d="M1.24689 18.6788C1.24689 20.1961 2.47726 21.4265 3.99461 21.4265C5.5125 21.4265 6.7426 20.1961 6.7426 18.6788C6.7426 17.1609 5.5125 15.9309 3.99461 15.9309C2.47712 15.9309 1.24689 17.1609 1.24689 18.6788Z" fill="#2D1E31"/>
<path d="M21.2142 18.6785C21.2142 20.1959 22.4443 21.4262 23.9616 21.4262C25.4795 21.4262 26.7095 20.1959 26.7095 18.6785C26.7095 17.1606 25.4795 15.9307 23.9616 15.9307C22.4443 15.9307 21.2142 17.1606 21.2142 18.6785Z" fill="#2D1E31"/>
<path d="M6.74242 18.6788C6.74242 17.1609 5.51232 15.9309 3.99442 15.9309C2.47708 15.9309 1.2467 17.1609 1.2467 18.6788C1.2467 19.0116 1.30886 19.3291 1.41739 19.6244C2.47154 19.8135 3.534 20.0253 4.50205 20.3636C4.87595 20.4944 5.27851 20.6542 5.68674 20.8408C6.32851 20.3377 6.74242 19.5571 6.74242 18.6788Z" fill="#211823"/>
<path d="M26.7093 18.6785C26.7093 17.1606 25.4793 15.9307 23.9614 15.9307C22.4441 15.9307 21.214 17.1606 21.214 18.6785C21.214 18.9474 21.2543 19.2071 21.3263 19.4528C22.421 19.5664 23.4884 19.7389 24.4457 19.9942C24.9507 20.1518 25.4284 20.3778 25.8506 20.6704C26.3789 20.1696 26.7093 19.4634 26.7093 18.6785Z" fill="#211823"/>
<path d="M36.8255 18.8021C36.2766 18.8249 3.54939 18.8021 0.982328 18.8021C-0.0739011 18.8021 0.00154509 13.7464 0.00154509 13.2182C0.00154509 12.6898 1.13364 11.1805 1.13364 11.1805C1.13364 11.1805 3.54843 0.691848 4.00068 0.23904C4.45349 -0.21363 32.5244 0.0882885 33.581 0.23904C34.6373 0.390345 37.5823 18.7709 36.8255 18.8021Z" fill="#C48C31"/>
<path d="M0.00130064 13.2182C0.00130064 12.6898 1.13339 11.1805 1.13339 11.1805C1.13339 11.1805 3.54818 0.691848 4.00044 0.23904C4.45325 -0.21363 32.5242 0.0882885 33.5808 0.23904C34.6372 0.390345 37.5822 18.7708 36.8254 18.8021C36.7387 18.8054 35.8484 18.808 34.4025 18.8096C34.2518 17.07 32.8241 15.705 31.0828 15.705C29.3411 15.705 27.913 17.0711 27.7632 18.8123C23.6697 18.8123 18.753 18.8105 14.2443 18.8087C14.2424 16.9277 12.7739 15.4032 10.9621 15.4032C9.15132 15.4032 7.68298 16.9258 7.67966 18.8051C4.19618 18.8033 1.62967 18.8021 0.982223 18.8021C-0.0741445 18.8021 0.00130064 13.7466 0.00130064 13.2182Z" fill="#E0AD3D"/>
<path d="M0.445325 10.2155C0.462767 10.0643 0.600231 9.96946 0.744476 10.0435C0.859512 10.1028 0.962642 10.1934 1.0021 10.3219C1.09014 10.6069 0.860894 11.2427 1.31578 11.2854C1.34942 11.2886 1.36188 11.3401 1.3245 11.3478C1.22912 11.369 1.12599 11.3875 1.03642 11.3673C1.06605 11.596 1.10038 11.8242 1.15077 12.0494C1.18164 12.1534 1.2103 12.2584 1.23314 12.3652C1.31453 12.7468 0.754026 12.9067 0.646326 12.5268C0.439095 11.7959 0.357698 10.971 0.445325 10.2155Z" fill="#2D1E31"/>
<path d="M0.00123973 13.2179C0.00123973 12.6895 0.855222 11.569 0.855222 11.569C0.855222 11.569 3.54798 0.691666 4.00038 0.23872C4.12593 0.11344 6.37475 0.0457451 9.58012 0.0170898C8.82096 3.21083 6.89815 11.3006 6.71709 12.0859C6.49047 13.0671 5.35894 14.048 5.28336 14.4249C5.23144 14.6854 5.57392 17.2419 5.79153 18.804C3.28593 18.8026 1.50599 18.8016 0.982027 18.8016C-0.0742022 18.8018 0.00123973 13.7463 0.00123973 13.2179Z" fill="#F4BA45"/>
<path d="M14.4268 2.14045C14.4268 2.14045 15.053 11.0097 14.9138 11.1142C14.7747 11.2182 7.92293 11.7055 7.81827 11.5315C7.71376 11.3575 9.34877 2.38381 9.69664 2.14045C10.0444 1.89695 14.4268 2.14045 14.4268 2.14045Z" fill="#F3E4E7"/>
<path d="M8.54906 2.24469C8.54906 2.24469 6.39216 11.8789 6.21829 11.9487C6.04428 12.0183 1.2446 12.0528 1.27949 11.7401C1.31409 11.4274 3.67905 2.45317 3.78356 2.24469C3.88822 2.03594 8.6 2.016 8.54906 2.24469Z" fill="#F3E4E7"/>
<path d="M3.78357 2.24469C3.67906 2.45317 1.3141 11.4274 1.27949 11.7401C1.2716 11.8093 1.50057 11.8618 1.86312 11.9C3.00545 10.5056 4.21562 9.12057 5.25316 7.70123C6.07945 6.65206 7.01165 5.70893 7.97111 4.79736C8.30321 3.34162 8.54906 2.24469 8.54906 2.24469C8.60001 2.016 3.88823 2.03594 3.78357 2.24469Z" fill="#FFF3F6"/>
<mask id="mask0_203_3656" style="mask-type:luminance" maskUnits="userSpaceOnUse" x="7" y="2" width="8" height="10">
<path d="M14.4268 2.14118C14.4268 2.14118 15.053 11.0105 14.9138 11.115C14.7747 11.2189 7.92293 11.7062 7.81827 11.5322C7.71376 11.3582 9.34877 2.38454 9.69664 2.14118C10.0444 1.89768 14.4268 2.14118 14.4268 2.14118Z" fill="white"/>
</mask>
<g mask="url(#mask0_203_3656)">
<path d="M7.76397 10.7967C7.69641 10.8241 7.60754 11.0221 7.71967 11.2148C7.83194 11.4069 8.24834 11.7508 8.75126 11.7311C9.25418 11.7109 10.0363 11.5278 10.1469 11.4143C10.2573 11.3016 11.0272 10.3549 11.2929 9.6638C11.5582 8.97234 11.2862 8.2806 10.6771 8.54694C10.0676 8.81398 9.33599 10.349 9.33599 10.349C9.33599 10.349 8.10603 10.6606 7.76397 10.7967Z" fill="#C6B5B7"/>
<path d="M10.5714 8.03682C10.5714 8.03682 10.6942 8.68579 10.7435 8.6952C10.7929 8.70447 11.0148 8.49212 11.0148 8.49212L10.9665 7.90601L10.5714 8.03682Z" fill="#FFA8A7"/>
<path d="M10.9909 8.20128L10.9665 7.90601L10.5714 8.03682C10.5714 8.03682 10.5985 8.18121 10.6329 8.33486C10.6491 8.32711 10.6654 8.31978 10.6822 8.31285C10.7842 8.27354 10.8886 8.23769 10.9909 8.20128Z" fill="#E37166"/>
<path d="M9.09446 6.5095C9.09446 6.5095 8.85262 7.90848 9.88241 8.08235C10.913 8.2565 11.7065 7.70984 11.7696 6.93518C11.8324 6.16052 11.2375 5.70286 11.2375 5.70286C11.2375 5.70286 9.12699 5.54394 9.09446 6.5095Z" fill="#FFA8A7"/>
<path d="M11.238 5.70262C11.238 5.70262 9.12733 5.5437 9.0948 6.50926C9.0948 6.50926 9.07832 6.60394 9.07251 6.74736C9.07154 6.76909 9.75096 7.01592 10.5289 6.91528C10.5569 6.91901 10.6534 7.603 10.9503 7.75763C11.1439 7.55926 11.7471 7.21761 11.7701 6.93507C11.8327 6.16041 11.238 5.70262 11.238 5.70262Z" fill="#E37166"/>
<path d="M9.09389 7.26498C9.09112 7.3299 9.01498 7.78119 9.17639 7.74603C9.32396 7.71419 9.29253 7.58185 9.26235 7.49754C9.21252 7.35842 9.09776 7.17998 9.09389 7.26498Z" fill="#D2413C"/>
<path d="M9.74838 7.93246C9.81317 7.92194 9.87505 7.90076 9.9127 7.8429C9.94731 7.78974 9.91934 7.71817 9.89789 7.66557C9.8954 7.65837 9.88391 7.66197 9.88543 7.66875C9.89526 7.7197 9.89858 7.76316 9.88502 7.81327C9.8684 7.87598 9.80029 7.90367 9.74437 7.92042C9.73703 7.92236 9.74105 7.93399 9.74838 7.93246Z" fill="#9D4F67"/>
<path d="M9.53866 7.19421C9.57797 7.17871 9.60967 7.15781 9.65231 7.14964C9.7207 7.13704 9.75959 7.18175 9.81732 7.20362C9.82701 7.20722 9.83933 7.19657 9.83158 7.18701C9.79725 7.14299 9.72623 7.10202 9.66878 7.10741C9.61895 7.11198 9.54696 7.1351 9.53049 7.18757C9.52911 7.19172 9.53464 7.19601 9.53866 7.19421Z" fill="#7A3415"/>
<path opacity="0.5" d="M10.0337 7.4889C10.0435 7.50246 10.0583 7.48571 10.0517 7.47201C10.0427 7.4536 10.0334 7.43491 10.0243 7.41636C10.0434 7.43477 10.0648 7.44695 10.0925 7.44404C10.1108 7.44266 10.1312 7.42702 10.1276 7.40238C10.126 7.39421 10.1244 7.38577 10.1219 7.37746C10.1483 7.40002 10.176 7.41332 10.2012 7.4057C10.2445 7.39255 10.2477 7.35033 10.2372 7.30395C10.2534 7.31489 10.271 7.32361 10.2933 7.32375C10.3158 7.3243 10.3304 7.30409 10.3302 7.27931C10.3299 7.25453 10.3252 7.23003 10.3252 7.20539C10.3359 7.19279 10.3387 7.17327 10.3248 7.15306C10.323 7.15029 10.3216 7.14794 10.3198 7.14559C10.2995 7.11597 10.2462 7.10987 10.2433 7.15556C10.2425 7.17549 10.2444 7.19459 10.2463 7.21383C10.2195 7.19265 10.193 7.16123 10.1623 7.1532C10.126 7.1442 10.1042 7.18324 10.1217 7.2202C10.132 7.2418 10.1418 7.26353 10.1507 7.28596C10.117 7.25356 10.088 7.2155 10.0547 7.18255C10.0295 7.15708 9.98677 7.17244 9.99065 7.21273C9.99383 7.24429 10.0049 7.27198 10.0168 7.2998C9.99937 7.27751 9.98193 7.25536 9.96504 7.24678C9.93818 7.23405 9.91049 7.25412 9.91991 7.28873C9.93984 7.36653 9.9876 7.42757 10.0337 7.4889Z" fill="#D2413C"/>
<path d="M10.2965 8.05348C10.2567 7.97831 10.2335 7.91311 10.1765 7.84763C10.1438 7.81012 10.1107 7.77316 10.0784 7.73509C10.0696 7.72471 10.0394 7.67404 10.0105 7.63638C10.011 7.62476 10.0067 7.61216 9.99441 7.60441C9.83619 7.50349 9.68073 7.47123 9.49634 7.44466C9.36303 7.425 9.20757 7.37087 9.07634 7.41919C9.07053 7.42168 9.07232 7.42915 9.07786 7.43109C9.36967 7.51858 9.67423 7.50058 9.94541 7.65313C9.95787 7.70961 9.9994 7.76789 10.0267 7.81372C10.0514 7.85608 10.0859 7.89055 10.1171 7.92723C10.1637 7.98122 10.1824 8.04752 10.2145 8.10954C10.2435 8.16616 10.3258 8.10954 10.2965 8.05348Z" fill="#E37166"/>
<path d="M9.88351 7.6402C10.2282 7.70568 10.65 7.65681 10.9811 7.5487C11.0217 7.53541 10.9993 7.47339 10.9588 7.4864C10.7732 7.54745 10.5852 7.5714 10.3909 7.58303C10.2207 7.59327 10.048 7.57998 9.88268 7.62594C9.87506 7.62788 9.877 7.63895 9.88351 7.6402Z" fill="#E37166"/>
<path d="M10.1493 8.0972C10.3181 8.09955 10.4847 8.08793 10.6498 8.05097C10.8292 8.01082 11.0105 7.94313 11.1953 7.93358C11.2434 7.93123 11.2371 7.85661 11.1887 7.85869C11.0345 7.86547 10.8801 7.9117 10.7313 7.95157C10.5382 8.00279 10.3423 8.04363 10.1479 8.09111C10.1446 8.09236 10.1463 8.09692 10.1493 8.0972Z" fill="#E37166"/>
<path d="M10.6369 6.72374C10.6369 6.72374 10.7615 7.77831 11.0123 7.81859C11.2629 7.85915 11.6553 7.59558 11.6553 7.59558C11.6553 7.59558 11.9773 7.04684 11.7826 6.26886C11.5878 5.4906 10.6369 6.72374 10.6369 6.72374Z" fill="#703456"/>
<path d="M10.9438 6.86589C10.9532 6.88984 10.9612 6.91421 10.9687 6.93857C10.9748 6.96016 10.9784 6.98466 10.9893 7.00446C10.9936 7.01207 11.0044 7.00861 11.0036 7.00031C11.0019 6.97747 10.9921 6.95518 10.9848 6.93358C10.9763 6.90867 10.9669 6.88458 10.9564 6.86049C10.9525 6.85219 10.9406 6.858 10.9438 6.86589Z" fill="#231C16"/>
<path d="M11.0303 6.91503C11.0388 6.9279 11.0446 6.94161 11.0507 6.95545C11.0551 6.9668 11.0581 6.97871 11.0656 6.98826C11.0709 6.99546 11.0815 6.98978 11.0803 6.98203C11.0767 6.95573 11.0576 6.92624 11.0422 6.90534C11.0363 6.89745 11.0252 6.90672 11.0303 6.91503Z" fill="#231C16"/>
<path d="M11.0071 7.11085C11.0161 7.13493 11.022 7.15943 11.0363 7.18144C11.0412 7.18933 11.0534 7.17978 11.048 7.17148C11.0339 7.1514 11.0284 7.12787 11.0191 7.10572C11.0159 7.09742 11.0035 7.10282 11.0071 7.11085Z" fill="#231C16"/>
<path d="M11.1203 6.86476C11.1337 6.88455 11.1427 6.90587 11.1467 6.92968C11.1482 6.93937 11.1634 6.93715 11.1616 6.9276C11.1568 6.90116 11.146 6.87819 11.1304 6.85576C11.1251 6.84884 11.1151 6.85784 11.1203 6.86476Z" fill="#231C16"/>
<path d="M11.085 7.06329C11.0931 7.08433 11.1016 7.10578 11.1114 7.126C11.1154 7.13513 11.1295 7.12835 11.1248 7.11991C11.1143 7.09956 11.105 7.07921 11.0953 7.05858C11.0923 7.05124 11.0819 7.05609 11.085 7.06329Z" fill="#231C16"/>
<path d="M11.1867 7.07666C11.2075 7.1038 11.2228 7.13439 11.2336 7.1665C11.2364 7.17481 11.2494 7.16927 11.246 7.16096C11.2324 7.12885 11.2151 7.09895 11.1921 7.07251C11.1892 7.06919 11.1841 7.07334 11.1867 7.07666Z" fill="#231C16"/>
<path d="M11.142 7.24817C11.1504 7.27045 11.1542 7.29621 11.1659 7.31655C11.1693 7.3232 11.1791 7.32237 11.1802 7.31462C11.1842 7.28942 11.1675 7.26312 11.1572 7.24125C11.1526 7.23128 11.138 7.23792 11.142 7.24817Z" fill="#231C16"/>
<path d="M10.9848 7.31047C11.0032 7.33152 11.0089 7.35657 11.0184 7.38218C11.0209 7.38883 11.0328 7.38703 11.0328 7.37983C11.0331 7.34841 11.0158 7.32072 10.9935 7.30037C10.9882 7.29511 10.9795 7.30452 10.9848 7.31047Z" fill="#231C16"/>
<path d="M10.8534 7.22594C10.8646 7.24103 10.8721 7.25667 10.8742 7.27578C10.8751 7.28547 10.8917 7.28229 10.8888 7.27301C10.8832 7.25294 10.8726 7.2366 10.8573 7.22234C10.8551 7.22041 10.8515 7.22304 10.8534 7.22594Z" fill="#231C16"/>
<path d="M10.8689 7.04304C10.878 7.06547 10.8899 7.08941 10.9026 7.11018C10.9079 7.11904 10.9194 7.11336 10.9169 7.10422C10.909 7.08028 10.8914 7.05979 10.881 7.03736C10.877 7.02933 10.8654 7.03487 10.8689 7.04304Z" fill="#231C16"/>
<path d="M10.7734 7.08085C10.7807 7.09607 10.7878 7.11116 10.7944 7.12639C10.8004 7.13968 10.8045 7.15408 10.8161 7.16294C10.8215 7.16737 10.8289 7.16197 10.8279 7.15574C10.8256 7.14051 10.8138 7.12778 10.8063 7.11449C10.7984 7.10147 10.7905 7.08805 10.7815 7.07545C10.7788 7.07102 10.7705 7.076 10.7734 7.08085Z" fill="#231C16"/>
<path d="M10.7453 6.83107C10.7616 6.86139 10.7807 6.89046 10.7979 6.92078C10.8046 6.93365 10.8226 6.92243 10.8146 6.91025C10.7955 6.88118 10.7743 6.85391 10.7548 6.82456C10.7512 6.8193 10.7418 6.82512 10.7453 6.83107Z" fill="#231C16"/>
<path d="M10.8503 6.83827C10.8574 6.85073 10.8631 6.86361 10.8676 6.87662C10.873 6.89088 10.8744 6.90901 10.8851 6.92064C10.8898 6.92576 10.8996 6.9241 10.8998 6.91635C10.9 6.90126 10.892 6.88866 10.8851 6.87551C10.8777 6.86042 10.869 6.84589 10.8588 6.83287C10.8553 6.82872 10.8471 6.83357 10.8503 6.83827Z" fill="#231C16"/>
<path d="M10.8937 6.61116C10.9182 6.63221 10.928 6.65754 10.9385 6.68689C10.941 6.69353 10.9531 6.69201 10.9531 6.68453C10.9528 6.64896 10.9284 6.62058 10.9005 6.60161C10.8941 6.5976 10.8879 6.60632 10.8937 6.61116Z" fill="#231C16"/>
<path d="M10.7264 6.94362C10.7336 6.96078 10.7371 6.97892 10.7446 6.99622C10.7487 7.00577 10.7646 6.99844 10.7597 6.9893C10.7509 6.97283 10.7457 6.95511 10.7368 6.93905C10.7334 6.93213 10.7237 6.93642 10.7264 6.94362Z" fill="#231C16"/>
<path d="M10.8758 7.4726C10.8802 7.48548 10.8854 7.49793 10.8899 7.51095C10.8942 7.52368 10.8969 7.53822 10.906 7.5486C10.9099 7.55317 10.9194 7.55151 10.9194 7.54473C10.9194 7.53158 10.9135 7.52147 10.9081 7.50943C10.9017 7.49531 10.8949 7.48105 10.8881 7.46693C10.8844 7.45917 10.8728 7.46444 10.8758 7.4726Z" fill="#231C16"/>
<path d="M11.0857 7.48293C11.0947 7.50175 11.102 7.52114 11.1114 7.53996C11.1182 7.55519 11.1422 7.5437 11.1341 7.52944C11.1243 7.51117 11.1156 7.49235 11.1056 7.47449C11.0991 7.46147 11.0796 7.47005 11.0857 7.48293Z" fill="#231C16"/>
<path d="M11.2137 7.39702C11.226 7.41169 11.2344 7.42789 11.2429 7.44519C11.2496 7.45904 11.2716 7.44837 11.264 7.43522C11.2542 7.41695 11.2435 7.39979 11.2291 7.38414C11.2202 7.37487 11.205 7.38719 11.2137 7.39702Z" fill="#231C16"/>
<path d="M11.071 7.30966C11.084 7.32032 11.0948 7.3325 11.0983 7.34981C11.0998 7.35936 11.1152 7.35659 11.1127 7.34732C11.108 7.3271 11.0947 7.31215 11.0776 7.30011C11.0717 7.2954 11.065 7.30482 11.071 7.30966Z" fill="#231C16"/>
<path d="M10.9936 7.53198C11.0016 7.55011 11.0077 7.5688 11.0099 7.5879C11.0121 7.60341 11.0373 7.59898 11.0332 7.58444C11.0281 7.56354 11.0185 7.54429 11.0074 7.52574C11.0025 7.51813 10.9899 7.52298 10.9936 7.53198Z" fill="#231C16"/>
<path d="M10.8113 7.31761C10.8124 7.34045 10.8182 7.36564 10.8369 7.38045C10.8438 7.38613 10.856 7.37727 10.8507 7.36952C10.8397 7.35055 10.826 7.33671 10.8192 7.31539C10.8175 7.31027 10.8111 7.31345 10.8113 7.31761Z" fill="#231C16"/>
<path d="M11.3575 7.05216C11.3833 7.06808 11.3909 7.08926 11.4017 7.1157C11.404 7.12165 11.4144 7.11999 11.4144 7.11334C11.4154 7.08081 11.391 7.05575 11.3633 7.0415C11.3571 7.03873 11.3519 7.0487 11.3575 7.05216Z" fill="#231C16"/>
<path d="M11.3112 7.30757C11.3245 7.32543 11.3278 7.34868 11.3426 7.36446C11.3484 7.37083 11.3609 7.36682 11.3589 7.35713C11.3541 7.33525 11.338 7.31449 11.3218 7.29926C11.3155 7.29289 11.3062 7.30051 11.3112 7.30757Z" fill="#231C16"/>
<path d="M11.3826 7.24804C11.3918 7.25386 11.3998 7.26064 11.4066 7.26936C11.4139 7.27863 11.4156 7.28999 11.425 7.29788C11.4297 7.30175 11.4383 7.29801 11.4383 7.29206C11.439 7.26687 11.4095 7.24638 11.3882 7.23794C11.3822 7.23558 11.3767 7.24458 11.3826 7.24804Z" fill="#231C16"/>
<path d="M11.2395 6.96076C11.2533 6.98097 11.2627 7.00215 11.2665 7.02651C11.2681 7.03385 11.2799 7.03219 11.2782 7.02471C11.2734 6.99855 11.2626 6.97544 11.2475 6.95426C11.2437 6.94872 11.236 6.95522 11.2395 6.96076Z" fill="#231C16"/>
<path d="M11.2813 6.83915C11.2912 6.84926 11.3007 6.85978 11.3097 6.87085C11.3175 6.88013 11.3232 6.89231 11.3336 6.8984C11.3371 6.90033 11.3426 6.89812 11.3415 6.89356C11.339 6.88096 11.3286 6.8721 11.3202 6.86255C11.3102 6.85175 11.299 6.84164 11.2879 6.83181C11.2838 6.82766 11.277 6.83486 11.2813 6.83915Z" fill="#231C16"/>
<path d="M10.9258 7.38808C10.9399 7.39957 10.9501 7.41327 10.9584 7.42947C10.9634 7.43888 10.9793 7.43169 10.9735 7.42227C10.963 7.40469 10.9494 7.3903 10.9324 7.37853C10.9262 7.37369 10.9197 7.38324 10.9258 7.38808Z" fill="#231C16"/>
<path d="M11.2233 7.56407C11.2364 7.58359 11.241 7.60851 11.2557 7.62664C11.2626 7.63481 11.2748 7.62831 11.2737 7.61848C11.2708 7.59287 11.2532 7.56933 11.2348 7.55203C11.2273 7.54538 11.2182 7.55701 11.2233 7.56407Z" fill="#231C16"/>
<path d="M11.3693 7.48363C11.3819 7.49471 11.3811 7.51104 11.3859 7.52558C11.3884 7.53375 11.4018 7.53112 11.4018 7.52323C11.4017 7.50315 11.3949 7.4828 11.3791 7.46993C11.3704 7.46301 11.3613 7.47657 11.3693 7.48363Z" fill="#231C16"/>
<path d="M11.0758 7.6779C11.0847 7.6952 11.0927 7.71361 11.1039 7.72967C11.1093 7.73784 11.1211 7.72926 11.1181 7.72095C11.1115 7.70323 11.1013 7.68662 11.0927 7.67001C11.087 7.65963 11.0704 7.6671 11.0758 7.6779Z" fill="#231C16"/>
<path d="M10.9641 7.67381C10.9762 7.6846 10.9818 7.69845 10.9839 7.71409C10.9854 7.72641 11.0051 7.72309 11.0026 7.71132C10.9979 7.69166 10.9885 7.67492 10.972 7.66287C10.9647 7.65747 10.9576 7.66799 10.9641 7.67381Z" fill="#231C16"/>
<path d="M11.0446 6.73086C11.0595 6.75287 11.075 6.77474 11.0904 6.79675C11.0959 6.80492 11.108 6.79537 11.102 6.78734C11.0864 6.7656 11.0706 6.74401 11.0547 6.72255C11.0496 6.71522 11.0396 6.72366 11.0446 6.73086Z" fill="#231C16"/>
<path d="M10.7894 6.70015C10.8043 6.71676 10.815 6.73628 10.8289 6.75414C10.8344 6.76134 10.8442 6.75358 10.8419 6.74639C10.8347 6.72534 10.8167 6.70569 10.8021 6.68935C10.7952 6.68132 10.7822 6.69212 10.7894 6.70015Z" fill="#231C16"/>
<path d="M11.0065 6.51267C11.024 6.5272 11.0328 6.54645 11.0419 6.56652C11.0456 6.57455 11.0582 6.56887 11.0542 6.5614C11.0425 6.54036 11.0312 6.52014 11.0115 6.50575C11.0072 6.50256 11.0025 6.50893 11.0065 6.51267Z" fill="#231C16"/>
<path d="M10.9575 6.77818C10.9738 6.78648 10.9799 6.79852 10.9904 6.81292C10.9951 6.81929 11.004 6.81264 11.0016 6.80586C10.9951 6.78689 10.9796 6.77375 10.9622 6.76558C10.9541 6.76184 10.9496 6.77444 10.9575 6.77818Z" fill="#231C16"/>
<path d="M11.1745 6.69015C11.188 6.70912 11.1997 6.72933 11.2136 6.74857C11.2221 6.76103 11.2406 6.74372 11.2284 6.73279C11.2113 6.71742 11.196 6.70081 11.1792 6.68544C11.1758 6.68267 11.1723 6.68711 11.1745 6.69015Z" fill="#231C16"/>
<path d="M11.1388 6.55411C11.155 6.56699 11.1709 6.57958 11.1842 6.59523C11.1925 6.60436 11.2072 6.5919 11.1987 6.58332C11.1828 6.56809 11.1652 6.5555 11.147 6.5429C11.1393 6.53833 11.1319 6.54844 11.1388 6.55411Z" fill="#231C16"/>
<path d="M11.3332 6.67955C11.3468 6.6956 11.3572 6.71304 11.3707 6.72855C11.3769 6.73602 11.3889 6.72619 11.3822 6.71913C11.3688 6.70391 11.3574 6.6866 11.3436 6.6711C11.3379 6.66446 11.3278 6.67304 11.3332 6.67955Z" fill="#231C16"/>
<path d="M11.4327 6.96724C11.4391 6.9768 11.4467 6.98593 11.4532 6.99507C11.4603 7.00628 11.4773 6.99244 11.4687 6.98275C11.4608 6.97375 11.452 6.96627 11.4443 6.95714C11.4378 6.95008 11.4275 6.95908 11.4327 6.96724Z" fill="#231C16"/>
<path d="M11.551 7.04473C11.5672 7.05663 11.5724 7.07684 11.5822 7.09373C11.589 7.10564 11.608 7.09775 11.6023 7.08487C11.5924 7.06342 11.5792 7.04445 11.5561 7.03601C11.5505 7.03393 11.5464 7.04127 11.551 7.04473Z" fill="#231C16"/>
<path d="M11.4756 7.16661C11.4853 7.17727 11.4935 7.18862 11.5001 7.20136C11.5064 7.21299 11.5082 7.22614 11.5147 7.23804C11.5195 7.24649 11.5323 7.2451 11.5339 7.23514C11.5392 7.20261 11.5093 7.17395 11.4873 7.15471C11.4801 7.14834 11.4695 7.15969 11.4756 7.16661Z" fill="#231C16"/>
<path d="M11.4806 7.39124C11.5012 7.41394 11.5042 7.44065 11.5152 7.46848C11.5191 7.47679 11.5326 7.47499 11.533 7.46571C11.5346 7.43387 11.5163 7.40148 11.4937 7.38016C11.4861 7.3731 11.4731 7.38252 11.4806 7.39124Z" fill="#231C16"/>
<path d="M11.4221 7.59851C11.434 7.62496 11.4337 7.65915 11.4518 7.68213C11.4587 7.69099 11.4722 7.68351 11.4712 7.67313C11.4683 7.64447 11.4522 7.61388 11.4359 7.5898C11.4305 7.58163 11.4176 7.58979 11.4221 7.59851Z" fill="#231C16"/>
<path d="M11.3336 7.69087C11.3386 7.70194 11.3379 7.71426 11.3448 7.72548C11.3492 7.73281 11.3589 7.73115 11.3607 7.72271C11.3643 7.7072 11.3571 7.69405 11.3474 7.68187C11.3415 7.67467 11.3293 7.68201 11.3336 7.69087Z" fill="#231C16"/>
<path d="M11.5953 7.26949C11.6061 7.28389 11.6097 7.29925 11.6117 7.31711C11.6133 7.32985 11.6341 7.32666 11.6318 7.31421C11.6279 7.2933 11.6222 7.27489 11.6081 7.25897C11.6007 7.25052 11.5882 7.26105 11.5953 7.26949Z" fill="#231C16"/>
<path d="M11.5854 7.50675C11.5912 7.51491 11.5903 7.52447 11.593 7.53374C11.5962 7.54343 11.5972 7.55464 11.6012 7.56461C11.6055 7.57513 11.6228 7.57236 11.6235 7.56115C11.6252 7.53623 11.6163 7.50813 11.593 7.49623C11.5864 7.49249 11.5818 7.50176 11.5854 7.50675Z" fill="#231C16"/>
<path d="M11.427 6.81724C11.4357 6.82679 11.4442 6.83718 11.4518 6.84797C11.4598 6.85919 11.4638 6.87289 11.4724 6.88355C11.4784 6.89075 11.4906 6.88507 11.4888 6.87635C11.4843 6.84867 11.4568 6.82389 11.4374 6.80589C11.4309 6.80008 11.4212 6.8106 11.427 6.81724Z" fill="#231C16"/>
<path d="M11.542 6.85615C11.5518 6.86557 11.5595 6.87553 11.5652 6.88799C11.5703 6.89782 11.5719 6.9064 11.5785 6.91568C11.5836 6.92218 11.5966 6.92094 11.5989 6.91249C11.6066 6.88162 11.5775 6.8549 11.5537 6.83982C11.5425 6.83262 11.5324 6.84729 11.542 6.85615Z" fill="#231C16"/>
<path d="M11.4717 6.11618C11.4801 6.13847 11.4839 6.16449 11.4957 6.18512C11.4992 6.19162 11.5089 6.19051 11.5098 6.18276C11.5142 6.15771 11.4975 6.13127 11.4874 6.10925C11.4823 6.09956 11.468 6.10607 11.4717 6.11618Z" fill="#231C16"/>
<path d="M11.3143 6.17884C11.3332 6.20029 11.339 6.22535 11.3483 6.2511C11.3509 6.25774 11.3628 6.25594 11.3628 6.24861C11.3628 6.2176 11.3457 6.19005 11.3234 6.16928C11.3177 6.16402 11.3093 6.1733 11.3143 6.17884Z" fill="#231C16"/>
<path d="M11.6919 7.26274C11.6995 7.27769 11.7067 7.29306 11.7135 7.30828C11.7193 7.32157 11.7233 7.33583 11.7348 7.34483C11.7405 7.34898 11.748 7.34372 11.7471 7.33763C11.7444 7.32213 11.7327 7.30953 11.7253 7.29638C11.7169 7.28295 11.7093 7.27021 11.7006 7.25734C11.6976 7.25249 11.6895 7.25748 11.6919 7.26274Z" fill="#231C16"/>
<path d="M11.6639 7.01197C11.6806 7.04229 11.6995 7.07136 11.7164 7.10182C11.7234 7.11455 11.7418 7.1032 11.7335 7.09115C11.7143 7.06222 11.6931 7.03481 11.674 7.00588C11.6703 6.99993 11.6606 7.00588 11.6639 7.01197Z" fill="#231C16"/>
<path d="M11.7687 7.0198C11.776 7.03184 11.7814 7.04458 11.7864 7.05759C11.7918 7.0724 11.7935 7.09026 11.804 7.10203C11.8084 7.10688 11.8184 7.10521 11.8185 7.09746C11.8192 7.08251 11.8103 7.06991 11.804 7.05676C11.7965 7.04139 11.7881 7.02742 11.7777 7.01413C11.7739 7.00983 11.7658 7.01454 11.7687 7.0198Z" fill="#231C16"/>
<path d="M11.7135 6.73793C11.7378 6.75884 11.7477 6.78458 11.7582 6.81366C11.7608 6.82044 11.7727 6.81892 11.7727 6.8113C11.7724 6.77586 11.7481 6.74748 11.72 6.7288C11.7137 6.72423 11.7074 6.73323 11.7135 6.73793Z" fill="#231C16"/>
<path d="M11.645 7.12467C11.6527 7.14211 11.6561 7.15997 11.6629 7.17741C11.6673 7.18738 11.6835 7.17991 11.6784 7.17022C11.67 7.15402 11.6644 7.13602 11.6558 7.1201C11.6524 7.11318 11.6421 7.11789 11.645 7.12467Z" fill="#231C16"/>
<path d="M11.2054 6.34091C11.2104 6.35392 11.2151 6.36666 11.2197 6.37981C11.2244 6.39254 11.2269 6.4068 11.2357 6.41704C11.2397 6.42147 11.2491 6.41995 11.2491 6.41358C11.2496 6.39988 11.2433 6.38963 11.2379 6.37773C11.2314 6.36389 11.2248 6.34949 11.2179 6.33537C11.214 6.32748 11.2024 6.33302 11.2054 6.34091Z" fill="#231C16"/>
<path d="M11.4154 6.35139C11.4244 6.37036 11.4322 6.38932 11.441 6.40829C11.448 6.4231 11.4719 6.41216 11.464 6.39804C11.4542 6.37977 11.4452 6.36067 11.4356 6.34253C11.4287 6.33007 11.4095 6.33852 11.4154 6.35139Z" fill="#231C16"/>
<path d="M11.5435 6.26568C11.5557 6.28021 11.5643 6.29641 11.5726 6.31344C11.5792 6.32728 11.6014 6.31704 11.5942 6.30403C11.5839 6.28575 11.5734 6.2679 11.559 6.25281C11.5501 6.24312 11.5349 6.2553 11.5435 6.26568Z" fill="#231C16"/>
<path d="M11.4005 6.17862C11.4135 6.18942 11.4244 6.20188 11.4276 6.21849C11.43 6.22804 11.4451 6.22541 11.4427 6.21613C11.4376 6.19592 11.4243 6.18097 11.4074 6.16879C11.4013 6.16464 11.3947 6.17364 11.4005 6.17862Z" fill="#231C16"/>
<path d="M11.3235 6.40038C11.331 6.41838 11.3379 6.43651 11.3398 6.45631C11.3415 6.4714 11.3668 6.46711 11.363 6.45271C11.3577 6.43194 11.3484 6.41243 11.3372 6.39374C11.3324 6.38571 11.3193 6.39139 11.3235 6.40038Z" fill="#231C16"/>
<path d="M11.0048 6.41265C11.0061 6.43576 11.0115 6.4611 11.0305 6.47591C11.0375 6.48145 11.0494 6.47272 11.0446 6.46456C11.0329 6.44601 11.0194 6.43175 11.013 6.41029C11.0109 6.40531 11.0044 6.40835 11.0048 6.41265Z" fill="#231C16"/>
<path d="M11.6412 6.17565C11.6541 6.19337 11.6574 6.21649 11.6722 6.23269C11.6779 6.23906 11.6905 6.23476 11.6885 6.22521C11.684 6.20334 11.6675 6.1823 11.6517 6.16721C11.6453 6.16139 11.6359 6.16832 11.6412 6.17565Z" fill="#231C16"/>
<path d="M11.566 6.07738C11.5751 6.08306 11.583 6.08984 11.5899 6.09842C11.5973 6.1077 11.5988 6.11905 11.6085 6.12653C11.6129 6.13082 11.6215 6.12736 11.6218 6.12085C11.6221 6.09566 11.5926 6.07531 11.5717 6.067C11.5652 6.06479 11.5598 6.07365 11.566 6.07738Z" fill="#231C16"/>
<path d="M11.2554 6.25627C11.2693 6.26762 11.28 6.28147 11.2879 6.29767C11.2929 6.30736 11.3089 6.29974 11.3034 6.29033C11.2929 6.27316 11.2789 6.25849 11.2621 6.24686C11.2555 6.24229 11.2495 6.25129 11.2554 6.25627Z" fill="#231C16"/>
<path d="M11.5529 6.4333C11.5664 6.45282 11.5706 6.47773 11.5857 6.49559C11.5918 6.5039 11.6045 6.49753 11.6037 6.4877C11.6006 6.46181 11.5829 6.43814 11.5643 6.42098C11.5572 6.41419 11.5479 6.42596 11.5529 6.4333Z" fill="#231C16"/>
<path d="M11.6992 6.35183C11.7117 6.36304 11.711 6.37965 11.7157 6.39419C11.7182 6.40208 11.7316 6.39972 11.7316 6.39142C11.7313 6.37135 11.7247 6.35141 11.7089 6.33854C11.7003 6.3312 11.691 6.34477 11.6992 6.35183Z" fill="#231C16"/>
<path d="M11.4055 6.54651C11.4145 6.56395 11.4225 6.58223 11.4334 6.59842C11.4391 6.60673 11.4509 6.59787 11.4478 6.58956C11.4412 6.57184 11.4309 6.55537 11.4224 6.53876C11.4168 6.52824 11.4001 6.53571 11.4055 6.54651Z" fill="#231C16"/>
<path d="M11.2939 6.5423C11.3058 6.55282 11.3118 6.5668 11.3141 6.58259C11.3156 6.59463 11.3347 6.59131 11.3325 6.57968C11.3273 6.56002 11.3183 6.54299 11.3017 6.53109C11.2947 6.5261 11.2874 6.53662 11.2939 6.5423Z" fill="#231C16"/>
<path d="M11.7082 6.88091C11.7231 6.89752 11.7336 6.91746 11.7476 6.93462C11.7533 6.9421 11.7629 6.93435 11.7602 6.92701C11.7537 6.90597 11.7353 6.88631 11.7209 6.87011C11.7137 6.86195 11.7007 6.87261 11.7082 6.88091Z" fill="#231C16"/>
<path d="M11.767 6.65058C11.7836 6.65889 11.7896 6.6708 11.8004 6.68519C11.8049 6.69142 11.8138 6.68491 11.8119 6.67799C11.8049 6.65917 11.7896 6.64615 11.7717 6.63799C11.7638 6.63397 11.7594 6.64657 11.767 6.65058Z" fill="#231C16"/>
<path d="M11.5404 6.59296C11.5612 6.6165 11.5643 6.64335 11.5756 6.6709C11.5787 6.67879 11.5927 6.67741 11.593 6.668C11.5948 6.63629 11.5762 6.6039 11.5537 6.58272C11.5459 6.57539 11.5331 6.5848 11.5404 6.59296Z" fill="#231C16"/>
<path d="M11.7516 6.46651C11.7637 6.49309 11.7633 6.52687 11.7815 6.54998C11.7885 6.5587 11.802 6.55165 11.8008 6.54126C11.7979 6.51219 11.7823 6.4816 11.7657 6.45765C11.7603 6.44962 11.7475 6.45765 11.7516 6.46651Z" fill="#231C16"/>
<path d="M11.6629 6.55977C11.6683 6.57099 11.6679 6.58358 11.6748 6.59438C11.679 6.60172 11.6885 6.6002 11.6903 6.59147C11.6941 6.57611 11.6867 6.56268 11.6772 6.55091C11.6712 6.54344 11.659 6.55091 11.6629 6.55977Z" fill="#231C16"/>
<path d="M11.0984 6.37775C11.1098 6.39201 11.1128 6.40765 11.1152 6.42537C11.1168 6.43811 11.1373 6.43506 11.135 6.42233C11.1311 6.40184 11.1257 6.38315 11.1113 6.36709C11.1044 6.3592 11.0915 6.36945 11.0984 6.37775Z" fill="#231C16"/>
<path d="M11.546 6.72484C11.5518 6.73342 11.5508 6.74283 11.554 6.75169C11.5569 6.76194 11.5578 6.77273 11.5619 6.78298C11.5661 6.79336 11.5836 6.79073 11.5842 6.7791C11.5859 6.75432 11.5766 6.7265 11.5536 6.71404C11.5471 6.71085 11.5425 6.71999 11.546 6.72484Z" fill="#231C16"/>
<path d="M8.77954 6.542C8.77954 6.542 9.11455 6.92739 10.2088 6.868C11.3031 6.80848 11.8743 6.238 11.8743 6.238C11.8743 6.238 11.5806 5.07532 10.5034 5.13609C9.42601 5.19714 8.86191 5.94356 8.77954 6.542Z" fill="#352444"/>
<path d="M9.29422 5.6937C9.23359 5.78894 9.10374 5.93 9.11647 6.05334C9.13018 6.189 9.26432 6.20036 9.37645 6.18735C9.45507 6.17821 9.53315 6.15869 9.61053 6.14277C9.79133 6.10511 9.77624 6.22486 9.82247 6.35678C9.88892 6.54699 10.0524 6.68403 10.2617 6.61856C10.4381 6.56401 10.5458 6.39928 10.6489 6.25656C10.6759 6.21863 10.7037 6.18194 10.7327 6.14581C10.7704 6.10013 10.7372 6.11135 10.7788 6.14415C10.8554 6.20506 10.9103 6.28992 11.0056 6.32674C11.3732 6.46836 11.7577 6.12408 11.6086 5.74907C11.5643 5.63653 11.374 5.66241 11.37 5.78672C11.3667 5.88529 11.2739 5.99673 11.1677 5.99174C11.0798 5.98759 10.9802 5.80652 10.8916 5.76817C10.5818 5.63431 10.3992 5.95367 10.2484 6.16672C10.2246 6.20022 10.1742 6.28895 10.1457 6.25531C10.0999 6.20188 10.0837 6.1173 10.053 6.05473C9.99966 5.94675 9.8903 5.87394 9.7682 5.88404C9.6342 5.89429 9.51889 5.95866 9.39555 6.00725C9.37395 6.01666 9.35222 6.0251 9.33021 6.03355C9.22196 6.07591 9.21614 5.97361 9.23995 5.89553C9.25975 5.83116 9.29616 5.77108 9.32523 5.71059C9.33381 5.69232 9.30502 5.67695 9.29422 5.6937Z" fill="#703456"/>
<path d="M10.0703 5.24792C9.59575 5.51357 9.04438 5.94935 8.98111 6.53117C8.97931 6.54585 9.0034 6.55277 9.00714 6.53755C9.15166 5.95738 9.57097 5.55261 10.0743 5.25719C10.0796 5.25415 10.0757 5.24487 10.0703 5.24792Z" fill="#703456"/>
<path d="M10.1284 5.259C9.81044 5.61823 9.71312 6.18552 9.77195 6.65134C9.77403 6.66767 9.80158 6.66768 9.80213 6.65037C9.80476 6.16891 9.83494 5.66446 10.1353 5.26384C10.1385 5.25955 10.132 5.25526 10.1284 5.259Z" fill="#703456"/>
<path d="M10.1724 5.2618C10.3946 5.41726 10.5408 5.56054 10.6684 5.8039C10.7856 6.02705 10.8581 6.26252 10.9491 6.49633C10.956 6.51363 10.9817 6.50478 10.9795 6.4872C10.9403 6.22335 10.8022 5.9696 10.6736 5.73897C10.5469 5.51167 10.3939 5.38874 10.1821 5.24838C10.1733 5.24228 10.1636 5.25571 10.1724 5.2618Z" fill="#703456"/>
<path d="M10.2184 5.23771C10.5354 5.25585 10.8402 5.28284 11.1038 5.47831C11.3732 5.67792 11.495 5.99022 11.687 6.25269C11.6975 6.26709 11.7216 6.25213 11.7136 6.2358C11.5713 5.94426 11.3843 5.64816 11.1282 5.44467C10.8726 5.24186 10.531 5.23065 10.2204 5.22096C10.2094 5.22041 10.2073 5.23674 10.2184 5.23771Z" fill="#703456"/>
<path d="M9.81321 7.65059C10.2703 7.61266 10.755 7.60865 11.1837 7.42439C11.2047 7.41553 11.1999 7.37996 11.1748 7.38356C10.9495 7.41429 10.7298 7.47935 10.5043 7.51285C10.266 7.54829 10.039 7.54995 9.80656 7.62138C9.79037 7.62637 9.79618 7.65184 9.81321 7.65059Z" fill="#F1D0CB"/>
<path d="M10.1213 8.13955C10.5123 8.1516 10.8762 8.03019 11.2464 7.92222C11.2725 7.91474 11.2634 7.87114 11.2363 7.87584C11.0609 7.90754 10.8925 7.96458 10.7202 8.00874C10.5246 8.05885 10.3024 8.03864 10.119 8.12806C10.1126 8.13083 10.1144 8.13955 10.1213 8.13955Z" fill="#F1D0CB"/>
<path d="M10.9374 7.85046C10.9374 7.85046 10.7913 7.351 11.2118 7.21464C11.6965 7.05794 12.0199 7.62398 11.5974 7.92881C11.2232 8.19944 10.9374 7.85046 10.9374 7.85046Z" fill="#FFA8A7"/>
<path d="M11.5572 7.52952C11.4607 7.48411 11.3404 7.45808 11.2582 7.54668C11.1761 7.635 11.148 7.75973 11.2043 7.87019C11.2125 7.88584 11.2378 7.87947 11.2348 7.86106C11.2339 7.85663 11.2334 7.8522 11.2324 7.84804C11.2403 7.80333 11.2407 7.75972 11.2695 7.71903C11.289 7.69217 11.3236 7.67777 11.353 7.69674C11.3747 7.71127 11.3855 7.73827 11.4025 7.75751C11.4142 7.76927 11.4317 7.76056 11.4311 7.74464C11.4288 7.70657 11.4034 7.67417 11.3728 7.65272C11.3371 7.62752 11.2958 7.63818 11.2615 7.65908C11.2475 7.66767 11.2361 7.67916 11.2262 7.69217C11.2313 7.6649 11.2406 7.63735 11.2569 7.6098C11.3229 7.49712 11.4459 7.50086 11.554 7.53837C11.5595 7.54045 11.5624 7.53201 11.5572 7.52952Z" fill="#E37166"/>
<path d="M9.96534 7.595C9.96534 7.595 9.28177 7.42044 9.07869 7.42514C9.07869 7.42514 8.99632 7.78008 9.18805 8.00088C9.37991 8.22126 9.95496 8.35166 10.2847 8.11564C10.2847 8.11564 9.94028 7.80776 9.96534 7.595Z" fill="#F1D0CB"/>
<path d="M9.77608 7.99289C9.6915 7.92865 9.53147 7.96257 9.43055 7.94347C9.34334 7.92589 9.32535 7.88367 9.40342 7.82968C9.49894 7.76988 9.68029 7.84961 9.72874 7.75008C9.77594 7.65415 9.4624 7.66605 9.36702 7.63532C9.32341 7.62009 9.17432 7.57095 9.06565 7.51392C9.05375 7.63407 9.05666 7.84864 9.18817 8.00036C9.28091 8.10696 9.46337 8.19209 9.66423 8.22545C9.72472 8.18198 9.86551 8.06792 9.77608 7.99289Z" fill="#FFDDD9"/>
<path d="M10.5137 8.64194C10.6352 8.40993 11.6063 8.33199 11.7609 8.66893C11.9155 9.00545 12.307 10.8577 12.5777 11.3477C12.8486 11.8375 12.7268 12.1649 12.5541 12.2472C12.3811 12.3288 10.517 12.5255 10.3196 12.3513C10.122 12.1768 10.082 10.334 10.1623 10.0199C10.2433 9.70605 10.3286 8.99507 10.5137 8.64194Z" fill="#651F43"/>
<path d="M11.3711 10.086C11.547 9.97937 11.747 10.1231 11.8907 10.201C12.0137 10.2722 12.133 10.3436 12.2526 10.4143C12.0542 9.71372 11.8595 8.88355 11.7608 8.66898C11.6061 8.3319 10.635 8.40998 10.5135 8.64199C10.3284 8.99527 10.2431 9.70625 10.1623 10.0199C10.0891 10.305 10.1156 11.8494 10.2689 12.2625C10.5604 11.7477 10.8409 11.2365 11.0531 10.6874C11.1194 10.5007 11.1865 10.1845 11.3711 10.086Z" fill="#4D193D"/>
<path d="M10.5356 8.59195C10.5356 8.59195 11.3203 8.05345 11.658 8.28436C11.9955 8.51498 12.4103 8.5943 12.5642 8.63569C12.718 8.67681 13.0689 8.79655 13.0662 8.99368C13.0631 9.19108 12.9129 9.37201 12.7075 9.40025C12.7075 9.40025 12.6258 9.62188 12.633 9.74259C12.6405 9.86385 12.1394 9.94691 11.865 9.42807C11.5905 8.90896 11.6657 8.66241 11.5466 8.61382C11.4277 8.56579 10.8299 8.77786 10.5356 8.59195Z" fill="#F1D0CB"/>
<path d="M12.487 9.16464C12.1718 8.9934 11.7976 8.60427 11.741 8.58932C11.6886 8.57547 12.1403 9.27012 12.6762 9.49604C12.6927 9.44011 12.7076 9.39969 12.7076 9.39969C12.8629 9.37823 12.9868 9.26943 13.0392 9.13169C12.8863 9.2016 12.6683 9.26334 12.487 9.16464Z" fill="#D6C2C4"/>
<path d="M12.9167 8.82398C12.8295 8.77497 12.7117 8.75947 12.6177 8.72486C12.4398 8.65952 12.255 8.61495 12.0714 8.56885C12.0555 8.56497 12.0423 8.57425 12.0364 8.58671C11.8948 8.49728 11.7598 8.39346 11.6219 8.28603C11.6196 8.28396 11.6153 8.28742 11.6175 8.29019C11.9043 8.65108 12.406 8.98386 12.883 8.99507C13.0072 8.99812 13.0067 8.87533 12.9167 8.82398Z" fill="#D6C2C4"/>
<path d="M8.59775 11.851C8.54542 11.9015 8.53795 12.1183 8.71431 12.2545C8.89053 12.3905 9.40591 12.5519 9.86412 12.3441C10.3223 12.1359 10.9781 11.6717 11.038 11.5251C11.0974 11.3787 11.4537 10.212 11.4393 9.47163C11.4249 8.73117 10.912 8.19294 10.4483 8.66942C9.98414 9.1459 9.88488 10.8436 9.88488 10.8436C9.88488 10.8436 8.86298 11.5954 8.59775 11.851Z" fill="#D6C2C4"/>
<path d="M9.23949 12.1602C9.89386 11.7545 10.2986 11.1014 10.4648 10.3596C10.6273 9.73242 10.5443 8.99126 10.8504 8.4918C10.7213 8.4792 10.5827 8.53167 10.4484 8.66968C9.98425 9.14616 9.885 10.8439 9.885 10.8439C9.885 10.8439 8.8631 11.5957 8.59787 11.8512C8.54554 11.9018 8.53806 12.1186 8.71443 12.2548C8.75388 12.2854 8.81091 12.3162 8.87971 12.345C9.00361 12.2941 9.12404 12.2333 9.23949 12.1602Z" fill="#F1D0CB"/>
<path d="M11.1726 11.0889C10.7292 11.16 10.6303 11.6574 10.6085 11.9057C10.8333 11.7472 11.0084 11.5975 11.0382 11.5251C11.0577 11.4765 11.111 11.3126 11.1726 11.0889Z" fill="#651F43"/>
<path d="M8.59775 11.8512C8.54542 11.9018 8.53795 12.1185 8.71431 12.2548C8.89053 12.3907 9.40591 12.5521 9.86412 12.3443C10.3223 12.1361 10.9781 11.672 11.038 11.5254C11.0974 11.3789 11.4537 10.2122 11.4393 9.47188C11.4249 8.73141 10.912 8.19319 10.4483 8.66967C9.98414 9.14615 9.88488 10.8439 9.88488 10.8439C9.88488 10.8439 8.86298 11.5957 8.59775 11.8512Z" fill="#D6C2C4"/>
<path d="M9.23949 12.1602C9.89386 11.7545 10.2986 11.1014 10.4648 10.3596C10.6273 9.73242 10.5443 8.99126 10.8504 8.4918C10.7213 8.4792 10.5827 8.53167 10.4484 8.66968C9.98425 9.14616 9.885 10.8439 9.885 10.8439C9.885 10.8439 8.8631 11.5957 8.59787 11.8512C8.54554 11.9018 8.53806 12.1186 8.71443 12.2548C8.75388 12.2854 8.81091 12.3162 8.87971 12.345C9.00361 12.2941 9.12404 12.2333 9.23949 12.1602Z" fill="#F1D0CB"/>
<path d="M11.1726 11.0889C10.7292 11.16 10.6303 11.6574 10.6085 11.9057C10.8333 11.7472 11.0084 11.5975 11.0382 11.5251C11.0577 11.4765 11.111 11.3126 11.1726 11.0889Z" fill="#651F43"/>
</g>
<mask id="mask1_203_3656" style="mask-type:luminance" maskUnits="userSpaceOnUse" x="7" y="2" width="8" height="10">
<path d="M14.4268 2.14118C14.4268 2.14118 15.053 11.0105 14.9138 11.115C14.7747 11.2189 7.92293 11.7062 7.81827 11.5322C7.71376 11.3582 9.34877 2.38454 9.69664 2.14118C10.0444 1.89768 14.4268 2.14118 14.4268 2.14118Z" fill="white"/>
</mask>
<g mask="url(#mask1_203_3656)">
<path d="M7.69828 10.0509C8.12977 9.97237 8.28273 10.6551 8.37507 10.9656C8.44138 11.1899 8.44373 11.4418 8.44248 11.6738C8.44096 12.0032 8.28703 12.1964 8.14721 12.4693C8.10208 12.5569 8.17642 12.6755 8.28052 12.6427C8.9425 12.4349 8.8294 11.2494 8.64612 10.7452C8.56416 10.5199 7.95687 9.372 7.64152 9.97722C7.62048 10.0185 7.65509 10.0586 7.69828 10.0509Z" fill="#2D1E31"/>
</g>
<mask id="mask2_203_3656" style="mask-type:luminance" maskUnits="userSpaceOnUse" x="7" y="2" width="8" height="10">
<path d="M14.4268 2.14118C14.4268 2.14118 15.053 11.0105 14.9138 11.115C14.7747 11.2189 7.92293 11.7062 7.81827 11.5322C7.71376 11.3582 9.34877 2.38454 9.69664 2.14118C10.0444 1.89768 14.4268 2.14118 14.4268 2.14118Z" fill="white"/>
</mask>
<g mask="url(#mask2_203_3656)">
<path d="M8.8212 10.9522C8.82024 10.9504 8.81899 10.9484 8.81829 10.9466C8.83449 10.9006 8.82674 10.8524 8.81899 10.8051C8.80473 10.7143 8.74534 10.628 8.66034 10.6001C8.66339 10.5923 8.66616 10.5839 8.66672 10.5756C8.67558 10.4849 8.56165 10.3814 8.47388 10.4142C8.39844 10.4424 8.35331 10.5702 8.44827 10.6106C8.46973 10.6199 8.48883 10.6238 8.50434 10.6271C8.45824 10.6729 8.45782 10.7501 8.51181 10.7961C8.37559 10.8566 8.42875 11.0649 8.58296 11.0289C8.63515 11.017 8.68208 11.0666 8.68748 11.0756C8.70188 11.0995 8.74659 11.2744 8.76431 11.2585C8.87547 11.157 8.85692 11.0415 8.8212 10.9522Z" fill="#FFA8A7"/>
<path d="M8.51596 10.8005C8.51042 10.8008 8.50987 10.8094 8.51596 10.8094C8.58144 10.8077 8.63972 10.8232 8.69648 10.8556C8.74686 10.8844 8.77939 10.9326 8.82397 10.9676C8.82729 10.9704 8.83269 10.968 8.83172 10.963C8.80279 10.8371 8.62933 10.7878 8.51596 10.8005Z" fill="#E37166"/>
<path d="M8.64789 10.6335C8.66879 10.6425 8.6807 10.605 8.65758 10.5984C8.60539 10.5837 8.5503 10.5976 8.50143 10.6182C8.49188 10.6225 8.49866 10.6378 8.50835 10.6347C8.55362 10.6218 8.60332 10.6147 8.64789 10.6335Z" fill="#E37166"/>
</g>
<path d="M6.35745 13.5487C6.41863 13.7479 6.35745 16.3314 6.35745 16.3314C6.35745 16.3314 4.5487 16.4361 4.51396 16.3314C4.47921 16.227 4.3052 14.6268 4.51396 14.3139C4.72257 14.0007 6.21832 13.0968 6.35745 13.5487Z" fill="#FF4C48"/>
<path d="M0.792233 14.071C0.827117 14.5926 1.03559 16.4246 0.792233 16.3781C0.679827 16.3566 0.389672 16.3552 0.109211 16.3597C-0.00983961 15.0799 -0.000840132 13.6982 0.00082104 13.2927C0.33001 13.4609 0.770638 13.7458 0.792233 14.071Z" fill="#FF4C48"/>
<path d="M6.35741 16.3309C6.35741 16.3309 6.41859 13.7475 6.35741 13.5481C6.35076 13.526 6.33968 13.5077 6.32653 13.4919C5.63133 14.3162 5.15333 15.3231 4.86249 16.3757C5.39725 16.3863 6.35741 16.3309 6.35741 16.3309Z" fill="#CF4737"/>
<path d="M0.109189 16.3592C0.389651 16.3547 0.679805 16.3561 0.792211 16.3776C1.03557 16.4241 0.827096 14.5921 0.792211 14.0705C0.790135 14.0427 0.784595 14.0155 0.776982 13.9885C0.457898 14.5964 0.231426 15.2712 0.0766602 15.9581C0.0863503 16.0923 0.0970075 16.2264 0.109189 16.3592Z" fill="#CF4737"/>
<path d="M7.88447 14.501C7.89803 14.036 7.81179 13.58 7.8176 13.1164C7.82452 12.5875 7.86937 12.0591 7.82964 11.531C7.82494 11.4656 7.93042 11.4519 7.94385 11.5157C8.03992 11.9785 8.05459 12.4187 8.03923 12.8908C8.02276 13.4091 8.10748 13.9184 8.09972 14.4351C10.4537 13.795 14.2368 15.1174 14.7988 17.7179C14.8132 17.7123 14.8271 17.7057 14.8444 17.7042C15.2484 17.6649 15.6561 17.6409 16.0656 17.6258C16.0314 12.3671 14.9529 7.16486 15.0365 1.89631C15.0365 1.87485 15.0686 1.87527 15.0696 1.89631C15.348 7.13371 16.2745 12.3743 16.3292 17.6181C17.5434 17.5844 18.769 17.6236 19.9705 17.6135C21.3535 17.6021 22.7367 17.5959 24.1203 17.5937C25.0975 17.5929 26.197 17.4684 27.1704 17.6654C27.1683 17.6475 27.1671 17.6291 27.1714 17.6092C27.5223 16.0473 28.8762 14.7779 30.4155 14.3865C31.7577 14.045 33.3999 15.3179 34.0104 16.4224C34.9502 16.2797 35.9314 16.4569 36.8834 16.3181C36.9454 16.3088 36.9719 16.3928 36.9094 16.4137C36.0157 16.717 34.9149 16.7444 33.9876 16.5848C33.9276 16.5744 33.9131 16.4962 33.9437 16.4527C32.9217 15.7267 32.1764 14.7089 30.8034 14.6435C29.2823 14.5711 27.7792 16.3752 27.491 17.6968C27.4604 17.8375 27.3068 17.8412 27.2227 17.7666C26.3192 17.9445 25.316 17.8354 24.4051 17.8415C23.0243 17.851 21.6433 17.8678 20.2623 17.8877C18.9621 17.9065 17.6337 17.8706 16.3207 17.9198C16.2781 18.0086 16.1399 18.0108 16.0889 17.9297C15.6716 17.9486 15.2562 17.9762 14.8444 18.0188C14.7311 18.0306 14.6843 17.9358 14.6982 17.8476C14.0525 16.794 13.4967 15.9411 12.3727 15.2865C11.1136 14.5528 9.33148 14.2318 7.95769 14.7546C7.80058 14.8141 7.72693 14.5578 7.88447 14.501Z" fill="#E0AD3D"/>
<path d="M34.5309 2.22486C28.0849 2.14747 21.6382 2.29283 15.1921 2.23967C15.0636 2.23856 15.0636 2.03992 15.1921 2.04089C18.311 2.06677 21.4304 2.02206 24.5502 2.04407C27.8717 2.06732 31.2192 1.80154 34.5311 2.12533C34.5938 2.13169 34.5964 2.22527 34.5309 2.22486Z" fill="#E0AD3D"/>
<path d="M13.3323 12.4785C12.8413 12.4209 12.8205 11.7297 13.3323 11.6985C13.5999 11.683 13.8592 11.71 14.1258 11.7208C14.3857 11.7319 14.6658 11.7078 14.901 11.8388C15.005 11.8968 15.023 12.0214 14.9752 12.1209C14.7215 12.6496 13.7997 12.5333 13.3323 12.4785Z" fill="#E0AD3D"/>
<path d="M4.41401 14.7814C3.92383 14.9558 3.35211 14.9054 2.8359 14.8992C2.22445 14.8915 1.61272 14.8814 1.00086 14.88C0.808715 14.879 0.808715 14.5811 1.00086 14.5818C1.61272 14.583 2.22445 14.5918 2.8359 14.601C3.35225 14.6089 3.92535 14.5731 4.41401 14.7497C4.42952 14.7551 4.42966 14.7757 4.41401 14.7814Z" fill="#E0AD3D"/>
<path opacity="0.3" d="M33.5807 0.238189C33.4774 0.223653 33.1129 0.20718 32.5418 0.19043C30.9299 5.89421 26.7823 9.79021 20.6785 12.0097C17.7968 13.0217 14.7754 14.0369 12.121 15.6219C13.3606 16.1082 14.2426 17.3505 14.2442 18.8079C18.6528 18.8098 23.4536 18.8111 27.4914 18.8115C27.5821 18.8115 27.6736 18.8115 27.7631 18.8115C27.9129 17.0703 29.341 15.7041 31.0827 15.7041C32.824 15.7041 34.2518 17.0691 34.4024 18.8087C35.2989 18.8079 35.981 18.8066 36.3914 18.8047C36.4016 18.8047 36.4122 18.8047 36.4225 18.8047C36.444 18.8047 36.4641 18.8044 36.4839 18.8044C36.5001 18.8044 36.5168 18.8044 36.5323 18.8044C36.5475 18.8044 36.5614 18.804 36.5757 18.804C36.6363 18.8036 36.6872 18.8032 36.7267 18.8032C36.7303 18.8026 36.7344 18.8026 36.738 18.8026C36.7494 18.8026 36.7589 18.8025 36.7679 18.8025C36.7747 18.8025 36.7807 18.8025 36.7859 18.8022C36.7923 18.8022 36.7984 18.8021 36.8035 18.8021C36.8126 18.8014 36.8207 18.8014 36.8254 18.8012C37.582 18.77 34.6371 0.389355 33.5807 0.238189Z" fill="#E0AD3D"/>
<path d="M8.4062 10.2155C8.38848 10.0643 8.25129 9.96946 8.10691 10.0435C7.99215 10.1028 7.88874 10.1934 7.84943 10.3219C7.76111 10.6069 7.99076 11.2427 7.5356 11.2854C7.50196 11.2886 7.48964 11.3401 7.52688 11.3478C7.62212 11.369 7.72539 11.3875 7.8151 11.3673C7.7852 11.596 7.75086 11.8242 7.70061 12.0494C7.66961 12.1534 7.64067 12.2584 7.61838 12.3652C7.53657 12.7468 8.09722 12.9067 8.20505 12.5268C8.41242 11.7959 8.49341 10.971 8.4062 10.2155Z" fill="#48314F"/>
<path d="M8.41742 19.2532C8.41742 20.7708 9.64752 22.0009 11.1651 22.0009C12.683 22.0009 13.9131 20.7708 13.9131 19.2532C13.9131 17.7353 12.683 16.5049 11.1651 16.5049C9.64738 16.5049 8.41742 17.7353 8.41742 19.2532Z" fill="#2D1E31"/>
<path d="M9.58008 19.2537C9.58008 20.2745 10.3486 21.1018 11.2966 21.1018C12.2446 21.1018 13.0134 20.2744 13.0134 19.2537C13.0134 18.2324 12.2445 17.4055 11.2966 17.4055C10.3486 17.4055 9.58008 18.2324 9.58008 19.2537Z" fill="#48314F"/>
<path d="M9.284 18.4391C9.64212 17.5239 10.2864 16.8679 11.1139 16.5078C9.62011 16.5354 8.41742 17.7529 8.41742 19.2533C8.41742 20.0464 8.75561 20.7589 9.293 21.2604C9.20108 21.0753 9.12577 20.8795 9.07455 20.6699C8.90262 19.9456 9.01724 19.1445 9.284 18.4391Z" fill="#48314F"/>
<path d="M10.7584 17.8321C10.2695 18.1774 10.0023 18.7366 9.95176 19.3302C9.91439 19.7734 10.0525 20.7381 10.6572 20.7185C10.7567 20.7152 10.8696 20.6295 10.857 20.5183C10.8348 20.3211 10.7782 20.2777 10.6571 20.1202C10.4879 19.9009 10.4511 19.5964 10.4342 19.3302C10.4035 18.8545 10.5809 18.3105 10.8458 17.9189C10.8804 17.8672 10.8105 17.7954 10.7584 17.8321Z" fill="#61446B"/>
<path d="M11.1039 20.9276C11.1799 20.9804 11.2638 20.9823 11.3382 20.9265C11.4281 20.859 11.4276 20.7503 11.3382 20.6829C11.3253 20.6732 11.3267 20.6744 11.3426 20.6865C11.322 20.6661 11.2976 20.6515 11.2694 20.6439C11.2402 20.636 11.2104 20.636 11.1812 20.6439C11.1686 20.6469 11.1001 20.6743 11.1388 20.6588C11.0187 20.7067 10.9933 20.8511 11.1039 20.9276Z" fill="#61446B"/>
<path d="M28.3845 19.2529C28.3845 20.7705 29.6147 22.0006 31.1322 22.0006C32.6499 22.0006 33.8803 20.7705 33.8803 19.2529C33.8803 17.735 32.6499 16.5046 31.1322 16.5046C29.6147 16.5046 28.3845 17.735 28.3845 19.2529Z" fill="#2D1E31"/>
<path d="M31.2797 21.1017C32.219 21.1017 32.9804 20.2742 32.9804 19.2535C32.9804 18.2327 32.219 17.4053 31.2797 17.4053C30.3405 17.4053 29.5791 18.2327 29.5791 19.2535C29.5791 20.2742 30.3405 21.1017 31.2797 21.1017Z" fill="#48314F"/>
<path d="M29.1926 20.9178C28.8111 20.2504 28.7924 19.4876 29.0017 18.7631C29.2892 17.7008 29.8979 17.0165 30.7058 16.5413C29.3914 16.7466 28.3846 17.8806 28.3846 19.2531C28.3846 20.2789 28.9477 21.1716 29.7809 21.6438C29.5538 21.4273 29.3511 21.1888 29.1926 20.9178Z" fill="#48314F"/>
<path d="M30.7371 18.0367C30.7419 18.0367 30.7468 18.0367 30.7518 18.0367C30.7717 18.0369 30.7943 18.0222 30.7983 18.0013C30.7997 17.9946 30.8008 17.9874 30.8024 17.9804C30.8103 17.9404 30.7839 17.8914 30.7371 17.895C29.9563 17.9542 29.5181 19.3903 30.0617 19.91C30.2328 20.073 30.4968 19.9518 30.5092 19.7246C30.5239 19.4605 30.4177 19.1786 30.4107 18.9056C30.4066 18.7557 30.4381 18.6122 30.4832 18.4701C30.5114 18.3825 30.5527 18.3013 30.5995 18.2225C30.6255 18.1901 30.6515 18.1577 30.677 18.1249C30.7459 18.0933 30.7542 18.0483 30.7021 17.9905C30.6979 18.0137 30.7122 18.0367 30.7371 18.0367Z" fill="#61446B"/>
<path d="M30.3061 20.3625C30.3353 20.4055 30.3679 20.4461 30.4039 20.4836C30.4732 20.5542 30.5949 20.5368 30.6442 20.4522C30.694 20.3677 30.6486 20.2527 30.5531 20.2275C30.5243 20.2202 30.4961 20.2119 30.4695 20.1993C30.4202 20.1762 30.3654 20.1773 30.3247 20.2177C30.2887 20.254 30.2761 20.3183 30.3061 20.3625Z" fill="#61446B"/>
<path d="M35.6089 13.4253C35.6089 13.4253 35.2963 10.6967 35.4004 10.4878C35.446 10.3969 35.71 10.3522 36.009 10.3306C36.3555 12.4661 36.6447 14.5421 36.8068 16.1052C36.5422 16.0806 36.2727 16.0494 36.1621 16.0184C35.9146 15.9491 35.6089 13.4253 35.6089 13.4253Z" fill="#CF4737"/>
</svg>
