<svg width="14" height="24" viewBox="0 0 14 24" fill="none" xmlns="http://www.w3.org/2000/svg">
<path d="M10.1115 22.2956L9.30652 22.4438L8.95618 21.2933L9.76126 21.1443L10.1115 22.2956Z" fill="#FFA8A7"/>
<path d="M9.18694 11.1309C9.18694 11.1309 6.85539 14.4291 6.84563 15.8051C6.83615 17.1804 8.22261 20.7461 8.4684 21.8082C8.4684 21.8082 9.77721 21.9602 9.9717 21.5671C10.166 21.1748 10.1022 18.3082 8.57533 16.3335C8.57533 16.3335 9.74794 14.3028 10.9309 13.8898C10.9309 13.8898 10.8747 11.568 9.18694 11.1309Z" fill="#3F273F"/>
<path d="M8.63585 16.3333C8.63585 16.3333 9.77832 14.3027 10.9308 13.8897C10.9308 13.8897 10.8762 11.568 9.23187 11.1309C9.23187 11.1309 9.22427 11.1426 9.21177 11.1601C9.36431 11.5849 9.45042 12.029 9.39989 12.5395C9.32152 13.2613 9.05461 13.8756 8.74736 14.3961C8.52447 14.7828 8.28595 15.1239 8.0803 15.5296C7.97191 15.7459 7.78066 16.0802 7.84436 16.3705C7.91241 16.7349 8.26095 16.9562 8.4446 17.1351C8.62715 17.3281 8.71246 17.4459 8.49336 17.6431C8.28432 17.8274 8.17918 18.0001 8.25403 18.3947C8.33552 18.8356 8.48548 19.2283 8.55666 19.6814C8.62471 20.1776 8.73405 20.7551 8.73541 21.2698C8.73269 21.4821 8.69167 21.662 8.6262 21.8172C8.92422 21.8437 9.83795 21.8952 9.99606 21.5674C10.1857 21.1745 10.1235 18.3079 8.63585 16.3333Z" fill="#302233"/>
<path d="M9.05589 22.045L9.15563 22.7676C9.15563 22.7676 7.75677 23.2514 7.77086 23.8208C7.77086 23.8208 9.8945 23.3234 10.5725 22.5981L10.008 21.6958L9.05589 22.045Z" fill="#755354"/>
<path d="M8.89882 23.6646C8.27744 23.8924 7.79129 23.9908 7.75368 23.9981C7.67282 24.0141 7.59435 23.9615 7.57801 23.8805C7.56181 23.7997 7.61421 23.7208 7.69536 23.7049C7.71226 23.7016 9.37863 23.3623 10.479 22.481C10.5435 22.4293 10.6375 22.4401 10.6893 22.5045C10.7406 22.5689 10.7304 22.6627 10.6661 22.7145C10.1191 23.1525 9.45484 23.46 8.89882 23.6646Z" fill="#E7CFB3"/>
<path d="M8.94027 22.4494C9.04325 22.4494 9.14228 22.4064 9.24568 22.3966C9.35809 22.386 9.4946 22.4226 9.58602 22.3422C9.64322 22.2922 9.64603 22.2216 9.59222 22.1674C9.42529 22 8.98887 22.2098 8.89984 22.3914C8.88561 22.4211 8.91083 22.4494 8.94027 22.4494Z" fill="#E7CFB3"/>
<path d="M8.989 22.7067C9.14128 22.7234 9.29667 22.7412 9.43007 22.822C9.55404 22.8968 9.66392 22.6746 9.52601 22.6138C9.43641 22.5745 9.344 22.5498 9.24581 22.5468C9.1503 22.5439 9.06817 22.5729 8.98041 22.6088C8.93632 22.6269 8.93603 22.7005 8.989 22.7067Z" fill="#E7CFB3"/>
<path d="M5.93417 9.40531C5.83824 9.46729 5.76217 9.79749 5.99193 10.0587C6.22155 10.3203 6.96282 10.722 7.72789 10.5407C8.49297 10.3589 9.63741 9.84257 9.7725 9.6362C9.90788 9.42968 10.8037 7.74696 11.0036 6.60731C11.2029 5.46794 10.5777 4.48959 9.72348 5.08111C8.86966 5.67263 8.20869 8.24607 8.20869 8.24607C8.20869 8.24607 6.41708 9.09314 5.93417 9.40531Z" fill="#C6B5B7"/>
<path d="M9.41046 4.53574C9.41046 4.53574 9.60261 5.54875 9.67967 5.56368C9.75644 5.57805 10.1037 5.2463 10.1037 5.2463L10.0282 4.33105L9.41046 4.53574Z" fill="#FFA8A7"/>
<path d="M10.0664 4.79199L10.0282 4.33105L9.41046 4.53574C9.41046 4.53574 9.45315 4.76141 9.50668 5.0016C9.53246 4.98892 9.5581 4.97723 9.58359 4.96667C9.7432 4.90482 9.90577 4.84904 10.0664 4.79199Z" fill="#E37166"/>
<path d="M7.10368 2.1483C7.10368 2.1483 6.72572 4.33379 8.33476 4.60567C9.9445 4.87769 11.1846 4.02316 11.2828 2.81307C11.3807 1.60299 10.4518 0.887218 10.4518 0.887218C10.4518 0.887218 7.15453 0.639424 7.10368 2.1483Z" fill="#FFA8A7"/>
<path d="M10.4518 0.887972C10.4518 0.887972 7.15457 0.640036 7.10372 2.14891C7.10372 2.14891 7.07794 2.29669 7.06836 2.52025C7.06709 2.55463 8.12842 2.94047 9.34386 2.78298C9.38753 2.78904 9.53855 3.85769 10.0019 4.09872C10.3045 3.78937 11.2468 3.25518 11.2828 2.81383C11.3809 1.60374 10.4518 0.887972 10.4518 0.887972Z" fill="#E37166"/>
<path d="M7.10284 3.3295C7.09862 3.43149 6.97888 4.13627 7.23132 4.08133C7.46249 4.0309 7.41304 3.82466 7.36585 3.69294C7.28823 3.47544 7.10834 3.19708 7.10284 3.3295Z" fill="#FFA8A7"/>
<path d="M8.12487 4.37344C8.22644 4.35682 8.32308 4.32357 8.38154 4.23327C8.43606 4.14987 8.39183 4.03844 8.35886 3.95533C8.35464 3.9442 8.33703 3.94956 8.33928 3.96111C8.35478 4.04042 8.35971 4.10874 8.33872 4.18706C8.31237 4.28483 8.20616 4.32794 8.11881 4.35442C8.1074 4.35738 8.11332 4.37541 8.12487 4.37344Z" fill="#9D4F67"/>
<path d="M7.7976 3.21848C7.85931 3.19439 7.90833 3.1617 7.97553 3.14903C8.08188 3.12944 8.14274 3.19904 8.23276 3.23284C8.24797 3.23862 8.26713 3.22242 8.2553 3.20721C8.20163 3.13846 8.0909 3.07408 8.00088 3.08254C7.92312 3.08972 7.81071 3.12593 7.78479 3.20777C7.78253 3.21496 7.79127 3.22129 7.7976 3.21848Z" fill="#7A3415"/>
<path opacity="0.5" d="M8.57057 3.67913C8.58663 3.69984 8.60903 3.67405 8.59888 3.65264C8.58451 3.62376 8.57 3.59475 8.55648 3.56559C8.5855 3.59418 8.61903 3.61292 8.66284 3.60897C8.69101 3.60658 8.72285 3.58277 8.71693 3.54361C8.71496 3.53065 8.71186 3.51769 8.70848 3.50515C8.75004 3.54009 8.79272 3.56094 8.83231 3.54896C8.89978 3.52854 8.90514 3.46261 8.88866 3.38963C8.91387 3.40724 8.94134 3.42077 8.97656 3.42119C9.01164 3.42175 9.03432 3.39048 9.03404 3.3516C9.03361 3.31314 9.02657 3.27412 9.02629 3.23608C9.04319 3.2165 9.0477 3.18622 9.02572 3.15424C9.02305 3.15044 9.02051 3.14635 9.01783 3.14269C8.98614 3.09606 8.90303 3.08676 8.89894 3.15875C8.89725 3.18946 8.90021 3.21918 8.90331 3.24919C8.86147 3.21608 8.82033 3.16706 8.77201 3.15494C8.71524 3.14072 8.68087 3.20143 8.70848 3.25961C8.72468 3.29342 8.7399 3.32765 8.75356 3.36217C8.7013 3.31131 8.65537 3.25215 8.60395 3.20059C8.56451 3.16114 8.4976 3.18509 8.50379 3.24806C8.50872 3.29708 8.52563 3.3409 8.54437 3.38344C8.51732 3.34878 8.48999 3.31455 8.46379 3.30131C8.42195 3.28102 8.37912 3.3123 8.39307 3.36653C8.4242 3.48782 8.49886 3.58291 8.57057 3.67913Z" fill="#D2413C"/>
<path d="M9.51282 2.48581C9.51282 2.48581 9.70764 4.13302 10.0993 4.19655C10.4912 4.25952 11.104 3.84733 11.104 3.84733C11.104 3.84733 11.6066 2.99055 11.3023 1.77483C10.9982 0.559385 9.51282 2.48581 9.51282 2.48581Z" fill="#703456"/>
<path d="M9.99281 2.70744C10.0073 2.74491 10.0197 2.78267 10.0313 2.82113C10.041 2.8548 10.0465 2.89283 10.0637 2.92382C10.0701 2.93594 10.0871 2.93073 10.0862 2.9172C10.0837 2.88128 10.0683 2.84676 10.0566 2.8131C10.0435 2.77436 10.0286 2.73618 10.012 2.69899C10.0063 2.68603 9.98774 2.6949 9.99281 2.70744Z" fill="#231C16"/>
<path d="M10.128 2.78405C10.1404 2.80433 10.1503 2.82574 10.1593 2.84786C10.1663 2.86519 10.1708 2.88393 10.1827 2.89914C10.191 2.91013 10.2076 2.90139 10.2059 2.88914C10.2003 2.84786 10.1703 2.8018 10.1461 2.76897C10.1368 2.75672 10.1199 2.77165 10.128 2.78405Z" fill="#231C16"/>
<path d="M10.091 3.08964C10.1058 3.12697 10.1147 3.16529 10.1368 3.19924C10.1448 3.21206 10.1637 3.19699 10.1552 3.18431C10.1335 3.15275 10.1247 3.11598 10.1104 3.08119C10.1048 3.06851 10.0859 3.0771 10.091 3.08964Z" fill="#231C16"/>
<path d="M10.2678 2.70387C10.289 2.73542 10.3033 2.76839 10.3096 2.80558C10.3121 2.82065 10.3357 2.81727 10.3328 2.80192C10.3255 2.76106 10.3082 2.72443 10.2842 2.69063C10.2761 2.67964 10.2603 2.69302 10.2678 2.70387Z" fill="#231C16"/>
<path d="M10.2127 3.01374C10.2258 3.0467 10.2389 3.07981 10.2544 3.11179C10.2607 3.12587 10.283 3.11544 10.2757 3.1022C10.2589 3.07093 10.2443 3.03839 10.2295 3.00599C10.2247 2.99514 10.2083 3.00275 10.2127 3.01374Z" fill="#231C16"/>
<path d="M10.3722 3.03601C10.4041 3.0787 10.4282 3.12603 10.4456 3.17646C10.4499 3.18858 10.4699 3.18012 10.4649 3.16759C10.4436 3.1173 10.4163 3.07081 10.3805 3.02953C10.376 3.02432 10.3679 3.03066 10.3722 3.03601Z" fill="#231C16"/>
<path d="M10.302 3.3031C10.3154 3.3379 10.3212 3.37847 10.3395 3.41059C10.345 3.42073 10.3599 3.41904 10.3622 3.40707C10.3685 3.36805 10.3425 3.32677 10.3261 3.29226C10.3189 3.27676 10.296 3.28733 10.302 3.3031Z" fill="#231C16"/>
<path d="M10.0562 3.40127C10.0853 3.4348 10.0945 3.47382 10.1094 3.51397C10.1131 3.52468 10.1318 3.52172 10.1318 3.51059C10.1323 3.46213 10.1049 3.41874 10.0703 3.38634C10.0615 3.37789 10.0483 3.3924 10.0562 3.40127Z" fill="#231C16"/>
<path d="M9.85149 3.2692C9.86924 3.29315 9.88051 3.31724 9.88389 3.34724C9.88544 3.36274 9.91108 3.35823 9.90714 3.34358C9.89826 3.31188 9.8815 3.28681 9.85755 3.26413C9.85389 3.26089 9.84825 3.26483 9.85149 3.2692Z" fill="#231C16"/>
<path d="M9.875 2.98217C9.88993 3.01781 9.90853 3.05486 9.92825 3.08797C9.93656 3.10107 9.95431 3.0929 9.95008 3.07797C9.93839 3.04078 9.91064 3.0088 9.8943 2.97344C9.88824 2.96133 9.86979 2.96963 9.875 2.98217Z" fill="#231C16"/>
<path d="M9.72627 3.04283C9.73796 3.06635 9.74895 3.09002 9.75937 3.11439C9.76867 3.13496 9.77501 3.15707 9.79304 3.17144C9.80135 3.17736 9.81318 3.16961 9.81149 3.15989C9.80797 3.13622 9.7898 3.11622 9.77768 3.09537C9.76515 3.07481 9.75247 3.05466 9.73909 3.03452C9.73444 3.02705 9.72204 3.0348 9.72627 3.04283Z" fill="#231C16"/>
<path d="M9.682 2.65256C9.70821 2.69989 9.73807 2.74553 9.76413 2.79273C9.77484 2.81315 9.80329 2.79526 9.79076 2.77652C9.76061 2.73102 9.72736 2.68848 9.6975 2.64298C9.69186 2.63396 9.67693 2.64382 9.682 2.65256Z" fill="#231C16"/>
<path d="M9.84612 2.664C9.85753 2.68316 9.86599 2.70288 9.87373 2.72401C9.88176 2.74655 9.8843 2.77459 9.90078 2.79262C9.90768 2.80065 9.92346 2.79797 9.92402 2.78586C9.92445 2.76233 9.91134 2.74247 9.90092 2.72204C9.88937 2.69852 9.87542 2.6764 9.85936 2.65583C9.85401 2.64893 9.84161 2.65625 9.84612 2.664Z" fill="#231C16"/>
<path d="M9.91406 2.3068C9.95238 2.33948 9.96788 2.37935 9.9845 2.42527C9.9883 2.43556 10.0072 2.4333 10.0072 2.42147C10.0065 2.36667 9.96872 2.32215 9.92505 2.29201C9.91491 2.28538 9.90519 2.29947 9.91406 2.3068Z" fill="#231C16"/>
<path d="M9.65287 2.82708C9.66413 2.85385 9.66963 2.8823 9.6809 2.90893C9.68752 2.92456 9.7126 2.91301 9.70471 2.89808C9.69132 2.87244 9.68301 2.84483 9.66949 2.81933C9.664 2.80933 9.6485 2.81609 9.65287 2.82708Z" fill="#231C16"/>
<path d="M9.88628 3.65291C9.89361 3.67291 9.90122 3.69263 9.90812 3.71264C9.91544 3.7332 9.91939 3.75546 9.93319 3.77166C9.93953 3.77871 9.95418 3.77617 9.95446 3.76546C9.95446 3.74518 9.94531 3.72869 9.93671 3.71052C9.92671 3.68812 9.91587 3.66601 9.90572 3.64403C9.89995 3.63149 9.88149 3.64023 9.88628 3.65291Z" fill="#231C16"/>
<path d="M10.214 3.66927C10.2282 3.69843 10.2399 3.72872 10.2541 3.75816C10.2651 3.78141 10.302 3.76408 10.29 3.74182C10.2744 3.71323 10.2609 3.6835 10.2454 3.65491C10.235 3.63561 10.2043 3.64885 10.214 3.66927Z" fill="#231C16"/>
<path d="M10.414 3.53672C10.4332 3.55954 10.4464 3.58504 10.4597 3.6118C10.4698 3.63265 10.5043 3.61701 10.4931 3.59617C10.4773 3.56813 10.4608 3.54066 10.4385 3.51685C10.4246 3.50206 10.4006 3.5208 10.414 3.53672Z" fill="#231C16"/>
<path d="M10.1913 3.39989C10.2114 3.41623 10.2282 3.43567 10.2336 3.46244C10.2361 3.47737 10.2603 3.47329 10.2565 3.45878C10.2486 3.42652 10.2281 3.40369 10.2016 3.38496C10.1921 3.37791 10.1821 3.39214 10.1913 3.39989Z" fill="#231C16"/>
<path d="M10.0707 3.74724C10.0826 3.77513 10.0927 3.80415 10.0962 3.83458C10.0992 3.85838 10.1386 3.85177 10.1326 3.82894C10.1242 3.79626 10.1096 3.76654 10.092 3.73752C10.0844 3.7247 10.0647 3.73315 10.0707 3.74724Z" fill="#231C16"/>
<path d="M9.78528 3.41056C9.78726 3.44691 9.79599 3.48579 9.82543 3.50903C9.83642 3.51762 9.85502 3.50396 9.84727 3.49142C9.82952 3.46226 9.80825 3.44028 9.79782 3.40661C9.79543 3.39901 9.785 3.40323 9.78528 3.41056Z" fill="#231C16"/>
<path d="M10.6387 2.99777C10.6788 3.02284 10.6908 3.05566 10.7078 3.09708C10.7114 3.10652 10.7276 3.10469 10.7276 3.09398C10.7287 3.04257 10.6914 3.00397 10.6475 2.98227C10.6381 2.97706 10.6299 2.99227 10.6387 2.99777Z" fill="#231C16"/>
<path d="M10.5668 3.39648C10.5867 3.42395 10.5925 3.46002 10.6153 3.48509C10.6243 3.49552 10.644 3.48875 10.6406 3.4741C10.6333 3.43959 10.6082 3.40677 10.5832 3.3831C10.5734 3.3738 10.5587 3.38493 10.5668 3.39648Z" fill="#231C16"/>
<path d="M10.6781 3.30348C10.6928 3.31221 10.7048 3.32334 10.7156 3.33658C10.7272 3.35137 10.7297 3.36898 10.7442 3.38096C10.7515 3.38744 10.7649 3.38152 10.7652 3.37208C10.766 3.33306 10.7198 3.3001 10.6867 3.28742C10.6771 3.2839 10.6686 3.29812 10.6781 3.30348Z" fill="#231C16"/>
<path d="M10.4546 2.85357C10.4761 2.88513 10.4908 2.91837 10.4969 2.95599C10.4988 2.96796 10.5174 2.965 10.5152 2.95331C10.5074 2.91302 10.4907 2.87667 10.467 2.84329C10.4611 2.83483 10.4491 2.84484 10.4546 2.85357Z" fill="#231C16"/>
<path d="M10.5195 2.66316C10.535 2.67908 10.5499 2.6957 10.5643 2.71317C10.5763 2.7274 10.585 2.74627 10.6015 2.75585C10.607 2.75895 10.6154 2.75543 10.614 2.74811C10.6098 2.72838 10.5936 2.71444 10.5802 2.69979C10.5644 2.68288 10.547 2.6671 10.5301 2.65175C10.5236 2.64555 10.5134 2.6564 10.5195 2.66316Z" fill="#231C16"/>
<path d="M9.96404 3.52083C9.98545 3.53858 10.0024 3.55985 10.015 3.58535C10.0229 3.6007 10.0477 3.58845 10.039 3.57422C10.0222 3.54703 10.0011 3.52435 9.9746 3.50575C9.96503 3.49885 9.95488 3.51294 9.96404 3.52083Z" fill="#231C16"/>
<path d="M10.4292 3.7977C10.4498 3.82799 10.457 3.86715 10.4802 3.89532C10.4907 3.90786 10.5097 3.89814 10.508 3.88293C10.5032 3.84264 10.476 3.80516 10.4471 3.77896C10.4353 3.76811 10.4212 3.78629 10.4292 3.7977Z" fill="#231C16"/>
<path d="M10.6572 3.6695C10.677 3.68711 10.6758 3.71275 10.6832 3.73571C10.687 3.74783 10.7082 3.74431 10.708 3.73163C10.708 3.70007 10.6973 3.66908 10.6728 3.64865C10.6593 3.63753 10.6448 3.65865 10.6572 3.6695Z" fill="#231C16"/>
<path d="M10.1988 3.97284C10.2127 4.00017 10.225 4.02877 10.2429 4.05427C10.2516 4.06666 10.2698 4.053 10.2648 4.04018C10.2546 4.01285 10.2384 3.98679 10.225 3.96073C10.2164 3.94425 10.19 3.95636 10.1988 3.97284Z" fill="#231C16"/>
<path d="M10.0242 3.96747C10.043 3.98452 10.052 4.00593 10.0556 4.03058C10.058 4.04932 10.0885 4.04439 10.0839 4.02607C10.0765 3.9955 10.0625 3.96931 10.0368 3.95071C10.0253 3.94254 10.0142 3.95888 10.0242 3.96747Z" fill="#231C16"/>
<path d="M10.1497 2.49584C10.1735 2.53021 10.1972 2.56444 10.2214 2.59867C10.2301 2.61107 10.249 2.59599 10.2397 2.5836C10.2152 2.55007 10.1901 2.51626 10.1658 2.48245C10.158 2.47132 10.142 2.48471 10.1497 2.49584Z" fill="#231C16"/>
<path d="M9.75134 2.44697C9.77472 2.47317 9.79135 2.50374 9.81304 2.53135C9.82149 2.54248 9.83699 2.53107 9.83305 2.51881C9.82192 2.48613 9.79402 2.45528 9.77134 2.43062C9.76035 2.41781 9.73979 2.43457 9.75134 2.44697Z" fill="#231C16"/>
<path d="M10.0903 2.15422C10.1173 2.17746 10.1311 2.20704 10.1455 2.23846C10.1514 2.25085 10.1713 2.2417 10.1652 2.22958C10.1465 2.19746 10.129 2.16619 10.0981 2.14351C10.0912 2.13886 10.0843 2.14914 10.0903 2.15422Z" fill="#231C16"/>
<path d="M10.0135 2.56897C10.0394 2.58221 10.0492 2.60095 10.0655 2.62306C10.0731 2.63307 10.0871 2.6225 10.0834 2.61193C10.0731 2.58263 10.0486 2.56235 10.0213 2.54924C10.0084 2.54319 10.0015 2.56277 10.0135 2.56897Z" fill="#231C16"/>
<path d="M10.3526 2.43264C10.3738 2.4625 10.3922 2.49434 10.4138 2.52364C10.4274 2.54294 10.4562 2.51631 10.4368 2.49899C10.41 2.47532 10.3862 2.44898 10.3599 2.42489C10.3551 2.42123 10.3493 2.42785 10.3526 2.43264Z" fill="#231C16"/>
<path d="M10.2966 2.21795C10.3221 2.23809 10.3468 2.2581 10.3679 2.28247C10.3806 2.29684 10.404 2.27698 10.3906 2.26416C10.3655 2.23993 10.3383 2.22035 10.3095 2.20077C10.2979 2.19358 10.2861 2.20978 10.2966 2.21795Z" fill="#231C16"/>
<path d="M10.601 2.41425C10.6221 2.43848 10.6386 2.4668 10.6594 2.49103C10.6694 2.50244 10.6879 2.48723 10.6776 2.47568C10.656 2.45173 10.6387 2.42454 10.6173 2.40087C10.6083 2.39073 10.5921 2.40383 10.601 2.41425Z" fill="#231C16"/>
<path d="M10.7562 2.86467C10.7662 2.87946 10.778 2.89313 10.7879 2.90891C10.7992 2.92567 10.8262 2.90454 10.8127 2.8889C10.8007 2.87467 10.7862 2.86326 10.7742 2.84946C10.7641 2.83791 10.7479 2.85228 10.7562 2.86467Z" fill="#231C16"/>
<path d="M10.9413 2.98622C10.9665 3.00453 10.9745 3.03665 10.9897 3.06285C11.0004 3.08159 11.0302 3.06905 11.0213 3.04848C11.0058 3.01495 10.9849 2.98537 10.9487 2.97241C10.9403 2.96945 10.9339 2.98073 10.9413 2.98622Z" fill="#231C16"/>
<path d="M10.8232 3.17621C10.8383 3.19298 10.8514 3.21045 10.862 3.23059C10.8713 3.24905 10.8739 3.26919 10.8845 3.28708C10.892 3.30103 10.912 3.29849 10.9146 3.28257C10.9225 3.23256 10.8758 3.18734 10.8413 3.15748C10.8298 3.14747 10.8136 3.16536 10.8232 3.17621Z" fill="#231C16"/>
<path d="M10.8314 3.52644C10.8635 3.56264 10.8683 3.60434 10.8857 3.64716C10.8913 3.66026 10.9126 3.65731 10.9133 3.64308C10.9157 3.59335 10.8871 3.54278 10.8516 3.50953C10.8397 3.4984 10.8197 3.51319 10.8314 3.52644Z" fill="#231C16"/>
<path d="M10.739 3.85062C10.7582 3.89232 10.7579 3.94542 10.7861 3.98135C10.7969 3.99515 10.818 3.9843 10.8162 3.96782C10.8117 3.92246 10.7866 3.87471 10.7613 3.83681C10.7528 3.82442 10.7331 3.83723 10.739 3.85062Z" fill="#231C16"/>
<path d="M10.6009 3.9957C10.6092 4.01345 10.6087 4.03275 10.6191 4.0498C10.626 4.06135 10.6409 4.05881 10.6442 4.04585C10.6495 4.02134 10.6381 4.00049 10.6231 3.98161C10.6136 3.97077 10.5946 3.98218 10.6009 3.9957Z" fill="#231C16"/>
<path d="M11.01 3.33681C11.0275 3.35892 11.0323 3.38344 11.0359 3.41119C11.0386 3.43133 11.0709 3.4257 11.0671 3.40626C11.061 3.37414 11.0521 3.34512 11.03 3.32004C11.0186 3.30737 10.9993 3.32342 11.01 3.33681Z" fill="#231C16"/>
<path d="M10.9948 3.70717C11.004 3.72027 11.0024 3.73492 11.0068 3.74943C11.0119 3.76521 11.013 3.78225 11.0192 3.79761C11.0257 3.81423 11.0532 3.81014 11.0543 3.79197C11.0567 3.75351 11.0427 3.7097 11.0068 3.69125C10.9968 3.68561 10.9891 3.69956 10.9948 3.70717Z" fill="#231C16"/>
<path d="M10.7476 2.62854C10.7615 2.64333 10.7741 2.65938 10.786 2.67615C10.798 2.69418 10.8048 2.71559 10.8183 2.73207C10.8277 2.74334 10.8463 2.73503 10.8439 2.72066C10.837 2.67784 10.7941 2.6391 10.7635 2.61135C10.7535 2.60219 10.7381 2.61839 10.7476 2.62854Z" fill="#231C16"/>
<path d="M10.9269 2.69144C10.9425 2.70581 10.9545 2.72187 10.9635 2.74117C10.9711 2.75695 10.9731 2.77033 10.9841 2.7847C10.9916 2.79485 11.012 2.79315 11.0158 2.77977C11.0282 2.73131 10.9831 2.68947 10.9453 2.6658C10.9279 2.65467 10.9118 2.6775 10.9269 2.69144Z" fill="#231C16"/>
<path d="M10.8172 1.53532C10.8303 1.56998 10.8365 1.61055 10.8547 1.64281C10.8603 1.65281 10.875 1.65126 10.8769 1.63942C10.8834 1.60012 10.8574 1.55871 10.8412 1.52476C10.8338 1.50926 10.8113 1.51955 10.8172 1.53532Z" fill="#231C16"/>
<path d="M10.5713 1.63338C10.6003 1.66621 10.6095 1.70551 10.6246 1.74566C10.6285 1.75665 10.647 1.75425 10.647 1.74242C10.6473 1.69367 10.6201 1.65085 10.5856 1.61845C10.5765 1.61014 10.5632 1.62465 10.5713 1.63338Z" fill="#231C16"/>
<path d="M11.1613 3.32619C11.1733 3.34943 11.1841 3.37395 11.1949 3.39747C11.2039 3.41818 11.2106 3.44086 11.2284 3.4548C11.237 3.461 11.2487 3.45311 11.247 3.44283C11.2432 3.4193 11.225 3.3993 11.2133 3.37916C11.2006 3.35859 11.1881 3.33788 11.1749 3.31788C11.1696 3.31055 11.1577 3.3183 11.1613 3.32619Z" fill="#231C16"/>
<path d="M11.1175 2.9347C11.1434 2.98217 11.1733 3.02796 11.1994 3.07515C11.2105 3.09487 11.2388 3.07769 11.226 3.05825C11.1961 3.01345 11.1627 2.9702 11.1327 2.92498C11.1271 2.91653 11.1124 2.92568 11.1175 2.9347Z" fill="#231C16"/>
<path d="M11.2813 2.94647C11.2925 2.96548 11.3012 2.98535 11.3085 3.00591C11.317 3.02888 11.3198 3.05677 11.3361 3.07466C11.3428 3.08269 11.3588 3.08029 11.3591 3.06832C11.3598 3.04493 11.3468 3.02493 11.3363 3.00437C11.3246 2.98112 11.3112 2.95858 11.295 2.93801C11.2891 2.93125 11.2766 2.9383 11.2813 2.94647Z" fill="#231C16"/>
<path d="M11.1943 2.50684C11.2327 2.53966 11.2485 2.57939 11.2651 2.62517C11.2688 2.63574 11.288 2.6332 11.2875 2.62179C11.2871 2.56643 11.2491 2.5222 11.2054 2.49233C11.1954 2.48543 11.1856 2.49951 11.1943 2.50684Z" fill="#231C16"/>
<path d="M11.0881 3.11083C11.0996 3.13731 11.1049 3.16591 11.1164 3.19268C11.1228 3.20817 11.1482 3.19662 11.1402 3.18197C11.1267 3.15633 11.1184 3.12844 11.1049 3.10322C11.0995 3.09294 11.0837 3.0997 11.0881 3.11083Z" fill="#231C16"/>
<path d="M10.4013 1.88493C10.4088 1.90494 10.4161 1.9248 10.4233 1.94494C10.4306 1.96537 10.434 1.98777 10.4485 2.00411C10.4545 2.01073 10.4691 2.00876 10.4695 1.99819C10.4696 1.97734 10.4602 1.961 10.4517 1.94269C10.4419 1.92029 10.4312 1.89845 10.4205 1.87634C10.4147 1.86394 10.3968 1.87282 10.4013 1.88493Z" fill="#231C16"/>
<path d="M10.7288 1.90127C10.7429 1.93043 10.7552 1.961 10.7693 1.9903C10.78 2.01354 10.8172 1.99636 10.8049 1.9741C10.7894 1.9455 10.7759 1.91578 10.7602 1.88718C10.7501 1.86816 10.7198 1.88126 10.7288 1.90127Z" fill="#231C16"/>
<path d="M10.9292 1.76915C10.9482 1.79226 10.9617 1.81747 10.9746 1.84424C10.9848 1.86565 11.0196 1.84959 11.0082 1.82931C10.9923 1.80057 10.976 1.77282 10.9533 1.74915C10.9395 1.7345 10.9158 1.75352 10.9292 1.76915Z" fill="#231C16"/>
<path d="M10.7061 1.63257C10.7265 1.6492 10.7434 1.66864 10.7487 1.69498C10.7517 1.71005 10.7756 1.70583 10.7721 1.69132C10.7638 1.65934 10.7432 1.63652 10.7168 1.61792C10.7073 1.61074 10.6972 1.62511 10.7061 1.63257Z" fill="#231C16"/>
<path d="M10.5858 1.97983C10.5975 2.00786 10.6077 2.03674 10.6116 2.06702C10.6139 2.09097 10.6537 2.08407 10.6474 2.06111C10.6391 2.02871 10.6243 1.99898 10.607 1.96996C10.5994 1.95715 10.5796 1.96546 10.5858 1.97983Z" fill="#231C16"/>
<path d="M10.0875 1.99727C10.0894 2.03362 10.0982 2.0725 10.1279 2.09603C10.1385 2.10462 10.1573 2.09095 10.1497 2.07814C10.1317 2.04883 10.1103 2.02714 10.1 1.99333C10.0976 1.98601 10.0872 1.99023 10.0875 1.99727Z" fill="#231C16"/>
<path d="M11.0816 1.62916C11.1017 1.65677 11.1075 1.69298 11.1303 1.71805C11.1392 1.72819 11.1588 1.72143 11.1558 1.70678C11.1484 1.67226 11.1227 1.63973 11.0982 1.6155C11.0884 1.6062 11.0739 1.61747 11.0816 1.62916Z" fill="#231C16"/>
<path d="M10.9641 1.47347C10.9793 1.48234 10.9909 1.49263 11.0021 1.50643C11.0133 1.52108 11.0161 1.53884 11.0309 1.55081C11.0378 1.55687 11.0513 1.55137 11.0514 1.54179C11.0524 1.50249 11.0061 1.46995 10.9734 1.45713C10.9635 1.45347 10.9552 1.46797 10.9641 1.47347Z" fill="#231C16"/>
<path d="M10.4789 1.75314C10.5006 1.77103 10.5178 1.79258 10.5306 1.8178C10.5381 1.83315 10.5629 1.82076 10.5543 1.80695C10.5377 1.7799 10.5163 1.7568 10.4898 1.73849C10.4802 1.73144 10.4699 1.74553 10.4789 1.75314Z" fill="#231C16"/>
<path d="M10.9441 2.03022C10.9649 2.0605 10.9717 2.09967 10.9951 2.1277C11.0052 2.14038 11.0248 2.13052 11.023 2.11517C11.0185 2.07502 10.9907 2.03797 10.962 2.01148C10.9503 2.00035 10.9365 2.01895 10.9441 2.03022Z" fill="#231C16"/>
<path d="M11.1726 1.90233C11.1919 1.91994 11.1909 1.94488 11.1984 1.96812C11.2022 1.98024 11.2239 1.97671 11.2235 1.96389C11.223 1.93262 11.2126 1.9012 11.1878 1.88106C11.1744 1.86993 11.1598 1.8912 11.1726 1.90233Z" fill="#231C16"/>
<path d="M10.7138 2.20578C10.728 2.23283 10.7404 2.26142 10.7575 2.28692C10.7665 2.30016 10.7846 2.28622 10.78 2.27312C10.7694 2.24565 10.7534 2.21958 10.7401 2.1938C10.7314 2.17718 10.7051 2.18902 10.7138 2.20578Z" fill="#231C16"/>
<path d="M10.5392 2.19914C10.5579 2.21576 10.567 2.23759 10.5706 2.26225C10.5734 2.28098 10.6034 2.27591 10.5994 2.25774C10.5915 2.22675 10.5775 2.20111 10.5516 2.18223C10.5405 2.17392 10.5292 2.19012 10.5392 2.19914Z" fill="#231C16"/>
<path d="M11.1867 2.72949C11.2102 2.75597 11.2268 2.7864 11.2484 2.81387C11.2573 2.825 11.2723 2.81373 11.2685 2.80176C11.2578 2.76893 11.2295 2.7378 11.2071 2.71272C11.1957 2.70005 11.175 2.71709 11.1867 2.72949Z" fill="#231C16"/>
<path d="M11.2784 2.3684C11.3043 2.3822 11.3137 2.40052 11.3305 2.4232C11.338 2.43278 11.3516 2.42249 11.3484 2.41178C11.3378 2.3822 11.3137 2.36248 11.286 2.3491C11.274 2.3429 11.2665 2.36248 11.2784 2.3684Z" fill="#231C16"/>
<path d="M10.9251 2.27926C10.9575 2.31603 10.962 2.35801 10.9796 2.40083C10.9848 2.41337 11.0061 2.41083 11.0069 2.39661C11.0094 2.34688 10.9808 2.29631 10.9453 2.2632C10.9334 2.25165 10.9135 2.26644 10.9251 2.27926Z" fill="#231C16"/>
<path d="M11.2543 2.08213C11.2733 2.12368 11.2729 2.17679 11.3012 2.21229C11.3123 2.22638 11.3332 2.21525 11.3313 2.19891C11.3268 2.15355 11.3017 2.10579 11.2762 2.06818C11.2679 2.05578 11.2479 2.06903 11.2543 2.08213Z" fill="#231C16"/>
<path d="M11.1165 2.22723C11.1244 2.24526 11.1238 2.2647 11.1344 2.28118C11.141 2.29302 11.156 2.29062 11.1589 2.2778C11.1646 2.25329 11.1531 2.23216 11.1383 2.21385C11.1292 2.20201 11.1098 2.21385 11.1165 2.22723Z" fill="#231C16"/>
<path d="M10.234 1.94398C10.2517 1.96624 10.2567 1.99062 10.2602 2.01794C10.2627 2.03809 10.295 2.03301 10.2912 2.01315C10.2853 1.98089 10.2765 1.95173 10.2541 1.92722C10.243 1.91454 10.2233 1.9306 10.234 1.94398Z" fill="#231C16"/>
<path d="M10.9334 2.48625C10.9426 2.49935 10.9409 2.51372 10.9454 2.52837C10.9502 2.54429 10.9514 2.56105 10.9576 2.57697C10.9642 2.59359 10.992 2.58937 10.9928 2.5712C10.9951 2.53274 10.9812 2.48836 10.9449 2.46963C10.9352 2.46441 10.9275 2.47864 10.9334 2.48625Z" fill="#231C16"/>
<path d="M6.61145 2.19996C6.61145 2.19996 7.13479 2.80162 8.84427 2.70893C10.5537 2.61595 11.4462 1.72438 11.4462 1.72438C11.4462 1.72438 10.9876 -0.0917413 9.30478 0.00362883C7.6215 0.0985764 6.73993 1.26499 6.61145 2.19996Z" fill="#352444"/>
<path d="M7.41529 0.875499C7.32035 1.02384 7.11791 1.245 7.13749 1.43701C7.15877 1.64917 7.36909 1.66649 7.54377 1.64635C7.66647 1.63198 7.78888 1.60212 7.90961 1.57676C8.19178 1.51759 8.16839 1.70481 8.24066 1.91062C8.34477 2.20772 8.59974 2.42199 8.92699 2.32028C9.20253 2.23463 9.37059 1.97711 9.53147 1.75369C9.57359 1.69481 9.61698 1.63761 9.66248 1.58112C9.72122 1.5097 9.67009 1.52745 9.73404 1.57831C9.85392 1.6741 9.93972 1.80638 10.0888 1.86385C10.6625 2.08559 11.2636 1.54746 11.0308 0.961571C10.9615 0.785763 10.6639 0.825769 10.6577 1.02031C10.6528 1.17485 10.5077 1.34798 10.342 1.34066C10.2046 1.33432 10.0487 1.05117 9.91041 0.991436C9.4268 0.782664 9.14168 1.28135 8.90586 1.61381C8.86839 1.66663 8.78978 1.80497 8.74512 1.75299C8.67356 1.66846 8.64863 1.53661 8.60017 1.43899C8.51747 1.26966 8.34589 1.15654 8.15572 1.17161C7.94554 1.18809 7.76606 1.28895 7.57363 1.36502C7.53968 1.37911 7.50587 1.39264 7.47136 1.40574C7.30189 1.47195 7.29302 1.31234 7.33021 1.19063C7.36092 1.08934 7.41811 0.996083 7.46319 0.901276C7.477 0.873384 7.4322 0.849297 7.41529 0.875499Z" fill="#703456"/>
<path d="M8.62759 0.177026C7.88632 0.592034 7.02518 1.27286 6.92628 2.18163C6.92361 2.20459 6.96108 2.2153 6.96686 2.19163C7.19281 1.2854 7.84745 0.652749 8.63393 0.191535C8.64253 0.186745 8.63633 0.172095 8.62759 0.177026Z" fill="#703456"/>
<path d="M8.71862 0.194306C8.2219 0.755679 8.07004 1.64232 8.16161 2.36908C8.16485 2.39528 8.20838 2.39529 8.20866 2.3681C8.21303 1.61612 8.26036 0.827805 8.72974 0.202053C8.73453 0.195009 8.72439 0.188107 8.71862 0.194306Z" fill="#703456"/>
<path d="M8.78736 0.197892C9.13419 0.440614 9.36282 0.664597 9.5623 1.04453C9.74515 1.39361 9.85869 1.76171 10.0007 2.12656C10.0114 2.15333 10.052 2.13938 10.0483 2.11191C9.98717 1.69986 9.77121 1.30289 9.57061 0.9431C9.37268 0.588244 9.13405 0.395535 8.80314 0.17662C8.78905 0.167463 8.7737 0.18789 8.78736 0.197892Z" fill="#703456"/>
<path d="M8.85951 0.161193C9.35453 0.18979 9.8311 0.231769 10.2429 0.53746C10.6637 0.849491 10.8538 1.33761 11.1533 1.74698C11.1704 1.76995 11.2081 1.74628 11.1954 1.7205C10.9726 1.26563 10.6811 0.803004 10.2809 0.485338C9.88153 0.167954 9.34777 0.150629 8.86232 0.135274C8.84556 0.134429 8.84232 0.160348 8.85951 0.161193Z" fill="#703456"/>
<path d="M9.9821 4.24418C9.9821 4.24418 9.75403 3.46361 10.4108 3.25061C11.1684 3.00549 11.6738 3.88989 11.0136 4.3666C10.4289 4.78935 9.9821 4.24418 9.9821 4.24418Z" fill="#FFA8A7"/>
<path d="M10.9508 3.7421C10.8 3.67068 10.6118 3.63109 10.484 3.76915C10.3557 3.90678 10.3116 4.10175 10.3994 4.27375C10.4122 4.29869 10.4522 4.28826 10.4471 4.25938C10.4457 4.25248 10.445 4.24614 10.4435 4.23938C10.456 4.16937 10.4564 4.10132 10.5015 4.03821C10.5318 3.99567 10.5862 3.97313 10.6317 4.003C10.6659 4.02568 10.6823 4.06794 10.7096 4.09738C10.7273 4.11668 10.7552 4.10259 10.754 4.07752C10.7506 4.01835 10.7101 3.96778 10.6628 3.93425C10.607 3.89481 10.5424 3.91101 10.489 3.94383C10.4674 3.95707 10.4497 3.97538 10.4342 3.99567C10.4418 3.95285 10.4562 3.9103 10.4814 3.86649C10.5849 3.6904 10.7766 3.69716 10.9454 3.75534C10.9546 3.75915 10.9591 3.74605 10.9508 3.7421Z" fill="#E37166"/>
<path d="M11.8287 21.4158L12.0509 22.2826L11.2048 22.4226L10.9735 21.5007L11.8287 21.4158Z" fill="#FFA8A7"/>
<path d="M9.84498 11.2681C9.82822 11.305 9.06582 15.0512 9.50055 16.9676C9.56859 17.2662 9.87132 21.1537 10.9174 22.2869C10.9174 22.2869 12.2329 21.9829 12.248 21.4618C12.2628 20.9409 11.9485 19.3535 11.8324 18.1651C11.7699 17.5221 11.3968 16.8871 11.4475 16.698C11.4983 16.509 12.2961 14.3888 12.2985 13.6129C12.3014 12.7716 13.3379 11.5168 12.3552 10.1502C11.9207 9.54688 9.84498 11.2681 9.84498 11.2681Z" fill="#3F273F"/>
<path d="M11.1367 22.2336L10.9517 22.9393C10.9517 22.9393 9.47426 22.8492 9.26929 23.3803C9.26929 23.3803 11.421 23.7356 12.3254 23.3255L12.15 22.2762L11.1367 22.2336Z" fill="#755354"/>
<path d="M10.3705 23.6693C9.70935 23.6413 9.22207 23.5457 9.18502 23.5384C9.10402 23.5215 9.05162 23.443 9.06782 23.3622C9.08388 23.2813 9.16249 23.2284 9.24377 23.245C9.26053 23.2484 10.9294 23.5741 12.2836 23.1824C12.363 23.1595 12.4456 23.2054 12.4689 23.2843C12.4918 23.3635 12.4461 23.4467 12.3669 23.4697C11.6935 23.6642 10.962 23.6937 10.3705 23.6693Z" fill="#E7CFB3"/>
<path d="M10.8742 22.5646C10.9695 22.6043 11.0772 22.6022 11.1763 22.6326C11.2845 22.6661 11.3966 22.7523 11.5118 22.713C11.5834 22.6887 11.6133 22.6243 11.5845 22.5539C11.4945 22.3354 11.011 22.3618 10.8593 22.4954C10.8344 22.5171 10.8472 22.5527 10.8742 22.5646Z" fill="#E7CFB3"/>
<path d="M10.821 22.819C10.9554 22.8926 11.0922 22.9688 11.1842 23.0943C11.2699 23.2115 11.4569 23.0485 11.3528 22.9389C11.2852 22.8686 11.2091 22.8106 11.1195 22.7699C11.0324 22.7308 10.9454 22.726 10.8507 22.7253C10.8034 22.7252 10.7745 22.7932 10.821 22.819Z" fill="#E7CFB3"/>
<path d="M11.4477 16.6979C11.4984 16.509 12.2963 14.3887 12.2987 13.6128C12.3015 12.7715 13.3381 11.5168 12.3554 10.1502C11.9209 9.54698 9.84516 11.268 9.84516 11.268C9.83952 11.2804 9.75387 11.6922 9.65625 12.3082C10.0508 12.1761 10.4446 12.0429 10.8594 11.9908C11.8375 11.8294 11.6613 12.3864 11.3925 13.0864C11.174 13.6776 11.1454 14.2886 11.0028 14.8884C10.8604 15.4874 10.646 16.0402 10.6177 16.6516C11.2629 16.7226 11.4029 17.1988 11.1505 17.7478C10.9403 18.2623 10.696 18.3894 10.9373 18.992C11.3006 19.8433 11.6015 20.8046 12.2477 21.3802C12.2331 20.7902 11.9433 19.2971 11.8327 18.1651C11.77 17.5222 11.397 16.8871 11.4477 16.6979Z" fill="#302233"/>
<path d="M7.62983 5.1684C7.91453 5.43507 7.24215 10.5424 6.726 10.9496C6.36663 11.2328 3.90236 10.9296 2.46167 10.5728C1.83267 10.4169 1.41105 10.094 1.41696 9.9579C1.43668 9.50992 1.54262 4.87666 1.94889 4.52912C2.35475 4.18202 7.23539 4.79903 7.62983 5.1684Z" fill="#E0AD3D"/>
<path d="M1.94875 4.52877C2.07849 4.41805 2.66663 4.40579 3.41847 4.45228L2.46166 10.5725C1.84789 10.4183 1.41104 10.0921 1.41696 9.95755C1.43654 9.50972 1.54248 4.8763 1.94875 4.52877Z" fill="#F4BA45"/>
<path d="M7.12538 6.15641C7.22385 6.27066 7.03973 7.24352 6.94534 7.30719C6.85124 7.37101 5.43957 7.2483 5.34391 7.21407C5.24868 7.17956 5.30588 5.95059 5.38364 5.88424C5.46154 5.81761 6.96859 5.97511 7.12538 6.15641Z" fill="#F3E4E7"/>
<path d="M3.60528 8.75456L3.483 9.53696C3.483 9.53696 2.064 9.4299 1.60983 9.24395L1.81438 8.47437C1.81438 8.47437 2.84288 8.67849 3.60528 8.75456Z" fill="#E0AD3D"/>
<path opacity="0.5" d="M7.62985 5.16856C7.60985 5.14997 7.57829 5.13081 7.53674 5.11108C7.23908 6.34977 6.74659 7.51901 6.00447 8.56188C5.25123 9.61025 4.28781 10.2714 3.24536 10.7448C4.65732 11.0171 6.42399 11.1879 6.72588 10.9498C7.24217 10.5425 7.9147 5.43509 7.62985 5.16856Z" fill="#E0AD3D"/>
<path opacity="0.5" d="M7.04253 9.84538C6.70247 9.96329 6.48651 10.2363 6.23872 10.4785C5.99008 10.7217 5.52957 10.5107 5.21359 10.5313C5.07004 10.5406 4.92255 10.6637 4.96693 10.8134C4.84704 10.7865 4.72702 10.7581 4.60446 10.735C4.46232 10.7084 4.2913 10.7402 4.23411 10.8823C4.23017 10.8925 4.23904 10.903 4.24947 10.9014C4.46331 10.8705 4.65729 11.0029 4.85324 11.0673C5.08315 11.1422 5.31882 11.1503 5.55633 11.1177C5.68495 11.1007 5.66579 10.925 5.5507 10.9021C5.46617 10.8852 5.38686 10.8564 5.30713 10.8246C5.09751 10.742 5.3477 10.7626 5.41771 10.7663C5.6062 10.7757 5.80173 10.8622 5.98923 10.8351C6.19519 10.806 6.31676 10.7084 6.44918 10.5524C6.64936 10.3176 6.85433 10.1116 7.07169 9.89341C7.09409 9.87045 7.07338 9.83495 7.04253 9.84538Z" fill="#E0AD3D"/>
<path d="M9.32071 5.4793C9.51061 5.11725 11.0274 4.99498 11.269 5.52142C11.5107 6.04743 12.1224 8.94094 12.5453 9.70601C12.9682 10.4719 12.7778 10.9833 12.5081 11.1115C12.238 11.2394 9.32607 11.5466 9.01728 11.2741C8.70848 11.0016 8.64608 8.12261 8.77202 7.63196C8.8981 7.14186 9.03136 6.03123 9.32071 5.4793Z" fill="#651F43"/>
<path d="M10.6606 7.73493C10.9349 7.56885 11.2474 7.79311 11.4719 7.91469C11.6641 8.02626 11.8503 8.13811 12.0376 8.24813C11.7276 7.15384 11.4234 5.85655 11.2692 5.52142C11.0276 4.99498 9.51083 5.11725 9.32093 5.4793C9.03158 6.03123 8.89832 7.14186 8.77224 7.63182C8.65785 8.07683 8.69899 10.49 8.93847 11.1356C9.39376 10.3311 9.83244 9.5326 10.1636 8.67483C10.2673 8.38322 10.372 7.88891 10.6606 7.73493Z" fill="#4D193D"/>
<path d="M9.4657 5.16655C9.4657 5.16655 10.5807 4.55939 11.108 4.9196C11.6355 5.28023 12.2836 5.40434 12.5237 5.46886C12.7641 5.53324 13.3126 5.71976 13.3081 6.02784C13.3037 6.33607 13.0689 6.61908 12.7479 6.66289C12.7479 6.66289 12.6205 7.00901 12.6318 7.1982C12.6433 7.38767 11.8602 7.51728 11.4316 6.70642C11.0029 5.89584 11.1201 5.51042 10.9343 5.43505C10.7488 5.35926 9.9255 5.45689 9.4657 5.16655Z" fill="#F1D0CB"/>
<path d="M12.403 6.29639C11.9112 6.02916 11.3267 5.42116 11.2378 5.39777C11.1566 5.37636 11.8618 6.46107 12.699 6.81438C12.7246 6.72704 12.748 6.66365 12.748 6.66365C12.991 6.6304 13.1843 6.46009 13.266 6.24568C13.0273 6.35486 12.6863 6.45037 12.403 6.29639Z" fill="#D6C2C4"/>
<path d="M13.0744 5.76423C12.9383 5.68675 12.7542 5.6628 12.6075 5.60927C12.3295 5.507 12.0412 5.4374 11.754 5.36598C11.7291 5.35936 11.7084 5.37387 11.6992 5.39331C11.4783 5.25371 11.2673 5.09114 11.052 4.92351C11.0482 4.92055 11.0416 4.92548 11.045 4.92985C11.4927 5.49418 12.2765 6.01343 13.022 6.03104C13.2163 6.03597 13.2154 5.8441 13.0744 5.76423Z" fill="#D6C2C4"/>
<path d="M6.11517 10.6868C6.11517 10.6868 5.58168 10.5669 5.25655 10.5927C4.93156 10.6188 4.99495 10.7527 5.17626 10.7925C5.35728 10.8315 5.63522 10.9666 5.59183 11.0073C5.5483 11.0477 4.66996 10.9585 4.47288 10.8846C4.27608 10.8106 4.16606 10.8474 4.22354 10.9805C4.28186 11.1136 5.46096 11.6097 6.10178 11.2545L6.94363 10.9662L6.62244 10.4231L6.11517 10.6868Z" fill="#FFA8A7"/>
<path d="M6.32805 10.4919C6.24578 10.5713 6.23423 10.9099 6.50977 11.1221C6.78518 11.3349 7.58984 11.5869 8.30589 11.2621C9.02208 10.9372 10.0462 10.2115 10.1395 9.98284C10.2329 9.75406 10.7896 7.93132 10.7672 6.7749C10.7447 5.61806 9.94366 4.77734 9.21888 5.52171C8.49395 6.26579 8.33829 8.91799 8.33829 8.91799C8.33829 8.91799 6.74207 10.0931 6.32805 10.4919Z" fill="#D6C2C4"/>
<path d="M7.33021 10.9753C8.35238 10.3416 8.98461 9.32052 9.24423 8.16242C9.49823 7.18237 9.36848 6.02511 9.84674 5.24454C9.64459 5.22482 9.42835 5.30666 9.21874 5.52234C8.49381 6.26642 8.33815 8.91862 8.33815 8.91862C8.33815 8.91862 6.74207 10.0938 6.32805 10.4926C6.24578 10.5719 6.23423 10.9105 6.50977 11.1227C6.57133 11.1703 6.66037 11.2196 6.76799 11.264C6.96155 11.1844 7.14947 11.0896 7.33021 10.9753Z" fill="#F1D0CB"/>
<path d="M10.3496 9.30151C9.65752 9.4121 9.5027 10.1894 9.46875 10.5777C9.81994 10.3302 10.0931 10.0962 10.1393 9.98305C10.1704 9.90656 10.2537 9.65073 10.3496 9.30151Z" fill="#651F43"/>
<path d="M6.11517 10.6868C6.11517 10.6868 5.58168 10.5669 5.25655 10.5927C4.93156 10.6188 4.99495 10.7527 5.17626 10.7925C5.35728 10.8315 5.63522 10.9666 5.59183 11.0073C5.5483 11.0477 4.66996 10.9585 4.47288 10.8846C4.27608 10.8106 4.16606 10.8474 4.22354 10.9805C4.28186 11.1136 5.46096 11.6097 6.10178 11.2545L6.94363 10.9662L6.62244 10.4231L6.11517 10.6868Z" fill="#FFA8A7"/>
<path d="M6.32805 10.4919C6.24578 10.5713 6.23423 10.9099 6.50977 11.1221C6.78518 11.3349 7.58984 11.5869 8.30589 11.2621C9.02208 10.9372 10.0462 10.2115 10.1395 9.98284C10.2329 9.75406 10.7896 7.93132 10.7672 6.7749C10.7447 5.61806 9.94366 4.77734 9.21888 5.52171C8.49395 6.26579 8.33829 8.91799 8.33829 8.91799C8.33829 8.91799 6.74207 10.0931 6.32805 10.4919Z" fill="#D6C2C4"/>
<path d="M7.33021 10.9753C8.35238 10.3416 8.98461 9.32052 9.24423 8.16242C9.49823 7.18237 9.36848 6.02511 9.84674 5.24454C9.64459 5.22482 9.42835 5.30666 9.21874 5.52234C8.49381 6.26642 8.33815 8.91862 8.33815 8.91862C8.33815 8.91862 6.74207 10.0938 6.32805 10.4926C6.24578 10.5719 6.23423 10.9105 6.50977 11.1227C6.57133 11.1703 6.66037 11.2196 6.76799 11.264C6.96155 11.1844 7.14947 11.0896 7.33021 10.9753Z" fill="#F1D0CB"/>
<path d="M10.3496 9.30151C9.65752 9.4121 9.5027 10.1894 9.46875 10.5777C9.81994 10.3302 10.0931 10.0962 10.1393 9.98305C10.1704 9.90656 10.2537 9.65073 10.3496 9.30151Z" fill="#651F43"/>
<path d="M1.34046 2.89437C1.37878 3.1254 1.39892 3.39658 1.55613 3.58591C1.63094 3.67678 1.56219 3.81567 1.43935 3.78665C1.05646 3.69523 0.857973 3.26275 0.982081 2.89437C1.03533 2.73603 1.30834 2.69927 1.34046 2.89437Z" fill="#DCF8FF"/>
<path d="M0.353662 3.48461C0.507071 3.7093 0.776136 3.74606 1.0066 3.85636C1.10916 3.90511 1.08296 4.04049 1.0066 4.09543C0.671891 4.33589 0.0820613 4.00005 0.00500445 3.63167C-0.0400745 3.41628 0.230963 3.30415 0.353662 3.48461Z" fill="#DCF8FF"/>
<path d="M0.390279 4.38575C0.482832 4.41885 0.582991 4.43829 0.680475 4.44801C0.805709 4.46097 0.926154 4.50352 1.05111 4.51901C1.14282 4.52986 1.19099 4.62509 1.12577 4.69947C0.901503 4.95529 0.503399 4.91726 0.234475 4.75554C0.0427481 4.64059 0.168829 4.30672 0.390279 4.38575Z" fill="#DCF8FF"/>
</svg>
