<svg width="24" height="24" viewBox="0 0 24 24" fill="none" xmlns="http://www.w3.org/2000/svg">
<g clip-path="url(#clip0_43_219)">
<path d="M20.5344 3.49048C18.3109 1.22813 15.2373 0 12.0983 0C5.42787 0 0.065396 5.365 0.130792 11.8935C0.130792 13.9619 0.719356 15.9657 1.7003 17.7756L0 23.9163L6.34342 22.3003C8.10911 23.2699 10.071 23.7224 12.0329 23.7224C18.6379 23.7224 24.0003 18.3574 24.0003 11.8289C24.0003 8.66157 22.7578 5.68819 20.5344 3.49048ZM12.0983 21.7186C10.3326 21.7186 8.56688 21.2661 7.06277 20.3611L6.6704 20.1672L2.87743 21.1368L3.85837 17.4524L3.59678 17.0646C0.719356 12.4752 2.09267 6.39922 6.80119 3.55512C11.5097 0.711024 17.5915 2.06843 20.469 6.72241C23.3464 11.3764 21.9731 17.3878 17.2646 20.2319C15.7604 21.2014 13.9294 21.7186 12.0983 21.7186ZM17.8531 14.5437L17.1338 14.2205C17.1338 14.2205 16.0874 13.768 15.4335 13.4448C15.3681 13.4448 15.3027 13.3802 15.2373 13.3802C15.0411 13.3802 14.9103 13.4448 14.7795 13.5095C14.7795 13.5095 14.7141 13.5741 13.7986 14.6083C13.7332 14.7376 13.6024 14.8022 13.4716 14.8022H13.4062C13.3408 14.8022 13.21 14.7376 13.1446 14.673L12.8176 14.5437C12.0983 14.2205 11.4443 13.8327 10.9211 13.3155C10.7903 13.1863 10.5942 13.057 10.4634 12.9277C10.0056 12.4752 9.54782 11.9581 9.22084 11.3764L9.15545 11.2471C9.09005 11.1825 9.09005 11.1178 9.02465 10.9886C9.02465 10.8593 9.02465 10.73 9.09005 10.6654C9.09005 10.6654 9.35163 10.3422 9.54782 10.1483C9.67861 10.019 9.74401 9.82506 9.8748 9.69578C10.0056 9.50187 10.071 9.24331 10.0056 9.0494C9.9402 8.72621 9.15545 6.98097 8.95926 6.59313C8.82847 6.39922 8.69767 6.33458 8.50149 6.26994H8.3053C8.17451 6.26994 7.97832 6.26994 7.78213 6.26994C7.65134 6.26994 7.52054 6.33458 7.38975 6.33458L7.32436 6.39922C7.19356 6.46386 7.06277 6.59313 6.93198 6.65777C6.80119 6.78705 6.73579 6.91633 6.605 7.0456C6.14723 7.62735 5.88564 8.33838 5.88564 9.0494C5.88564 9.56651 6.01644 10.0836 6.21262 10.5361L6.27802 10.73C6.86658 11.9581 7.65134 13.057 8.69767 14.0266L8.95926 14.2851C9.15545 14.479 9.35163 14.6083 9.48243 14.8022C10.8557 15.9657 12.4252 16.806 14.1909 17.2585C14.3871 17.3231 14.6487 17.3231 14.8449 17.3878C15.0411 17.3878 15.3027 17.3878 15.4989 17.3878C15.8258 17.3878 16.2182 17.2585 16.4798 17.1292C16.676 16.9999 16.8068 16.9999 16.9376 16.8707L17.0684 16.7414C17.1992 16.6121 17.33 16.5475 17.4607 16.4182C17.5915 16.2889 17.7223 16.1596 17.7877 16.0304C17.9185 15.7718 17.9839 15.4486 18.0493 15.1254C18.0493 14.9961 18.0493 14.8022 18.0493 14.673C18.0493 14.673 17.9839 14.6083 17.8531 14.5437Z" fill="#999999"/>
</g>
<defs>
<clipPath id="clip0_43_219">
<rect width="24" height="24" fill="white"/>
</clipPath>
</defs>
</svg>
